<svg width="1280" height="720" xmlns="http://www.w3.org/2000/svg" xmlns:xlink="http://www.w3.org/1999/xlink" overflow="hidden"><defs><filter id="fx0" x="-10%" y="-10%" width="120%" height="120%" filterUnits="userSpaceOnUse" primitiveUnits="userSpaceOnUse"><feComponentTransfer color-interpolation-filters="sRGB"><feFuncR type="discrete" tableValues="0 0"/><feFuncG type="discrete" tableValues="0 0"/><feFuncB type="discrete" tableValues="0 0"/><feFuncA type="linear" slope="0.4" intercept="0"/></feComponentTransfer><feGaussianBlur stdDeviation="6.66667 6.66667"/></filter><filter id="fx1" x="-10%" y="-10%" width="120%" height="120%" filterUnits="userSpaceOnUse" primitiveUnits="userSpaceOnUse"><feComponentTransfer color-interpolation-filters="sRGB"><feFuncR type="discrete" tableValues="0 0"/><feFuncG type="discrete" tableValues="0 0"/><feFuncB type="discrete" tableValues="0 0"/><feFuncA type="linear" slope="0.4" intercept="0"/></feComponentTransfer><feGaussianBlur stdDeviation="6.66667 6.66667"/></filter><clipPath id="clip2"><rect x="0" y="0" width="1280" height="720"/></clipPath><clipPath id="clip3"><rect x="23" y="15" width="397" height="131"/></clipPath><linearGradient x1="248" y1="11" x2="248" y2="167" gradientUnits="userSpaceOnUse" spreadMethod="reflect" id="fill4"><stop offset="0" stop-color="#0098F0"/><stop offset="0.62" stop-color="#00E4F0"/><stop offset="1" stop-color="#00F0AB"/><stop offset="1" stop-color="#00F0AB"/><stop offset="1" stop-color="#00F0AB"/><stop offset="1" stop-color="#00F0AB"/></linearGradient></defs><g clip-path="url(#clip2)"><rect x="0" y="0" width="1280" height="720" fill="#FFFFFF"/><path d="M-14 48.5003C-14 36.0737-3.92628 26 8.5003 26L1226.5 26C1238.93 26 1249 36.0737 1249 48.5003L1249 709.5C1249 721.926 1238.93 732 1226.5 732L8.5003 732C-3.92628 732-14 721.926-14 709.5Z" fill="#0098F0" fill-rule="evenodd" fill-opacity="0.321569"/><g filter="url(#fx0)" transform="translate(36 4)"><g><path d="M21.1421 47.1424C21.1421 32.7829 32.7829 21.1421 47.1424 21.1421L405.142 21.1421C419.501 21.1421 431.142 32.7829 431.142 47.1424L431.142 151.142C431.142 165.501 419.501 177.142 405.142 177.142L47.1424 177.142C32.7829 177.142 21.1421 165.501 21.1421 151.142Z" fill="#FF0000" fill-rule="evenodd"/></g></g><g clip-path="url(#clip3)" filter="url(#fx1)" transform="translate(41 26)"><g><path d="M19.6382-9.73779 24.8232-8.09375C24.0283-5.20312 22.7065-3.05623 20.8577-1.65308 19.0089-0.249919 16.6632 0.45166 13.8208 0.45166 10.3039 0.45166 7.41325-0.749756 5.14893-3.15259 2.8846-5.55542 1.75244-8.84049 1.75244-13.0078 1.75244-17.416 2.89062-20.8396 5.16699-23.2786 7.44336-25.7175 10.4364-26.937 14.146-26.937 17.3859-26.937 20.0176-25.9795 22.041-24.0645 23.2454-22.9323 24.1488-21.3063 24.751-19.1865L19.4575-17.9219C19.1444-19.2949 18.491-20.3789 17.4973-21.1738 16.5037-21.9688 15.2962-22.3662 13.875-22.3662 11.9118-22.3662 10.3189-21.6616 9.09644-20.2524 7.87394-18.8433 7.26269-16.5609 7.2627-13.4053 7.26269-10.057 7.86491-7.6722 9.06934-6.25098 10.2738-4.82975 11.8395-4.11914 13.7666-4.11914 15.1878-4.11914 16.4103-4.5708 17.4341-5.47412 18.4578-6.37744 19.1925-7.79867 19.6382-9.73779ZM28.4814-9.86426C28.4814-11.5505 28.897-13.1825 29.728-14.7603 30.5591-16.3381 31.7364-17.5425 33.26-18.3735 34.7836-19.2046 36.4849-19.6201 38.3638-19.6201 41.2664-19.6201 43.6452-18.6777 45.5-16.7927 47.3548-14.9078 48.2822-12.526 48.2822-9.64746 48.2822-6.74479 47.3458-4.33895 45.4729-2.42993 43.6-0.520915 41.2423 0.433594 38.3999 0.433594 36.6414 0.433594 34.9643 0.0361328 33.3684-0.758789 31.7725-1.55371 30.5591-2.71899 29.728-4.25464 28.897-5.79028 28.4814-7.66016 28.4814-9.86426ZM33.6846-9.59326C33.6846-7.69027 34.1362-6.23291 35.0396-5.22119 35.9429-4.20947 37.057-3.70361 38.3818-3.70361 39.7067-3.70361 40.8178-4.20947 41.7151-5.22119 42.6124-6.23291 43.061-7.70231 43.061-9.62939 43.061-11.5083 42.6124-12.9536 41.7151-13.9653 40.8178-14.9771 39.7067-15.4829 38.3818-15.4829 37.057-15.4829 35.9429-14.9771 35.0396-13.9653 34.1362-12.9536 33.6846-11.4963 33.6846-9.59326ZM52.1097-19.1865 56.7889-19.1865 56.7889-16.5669C58.4631-18.6024 60.4564-19.6201 62.7689-19.6201 63.9974-19.6201 65.0633-19.3672 65.9666-18.8613 66.87-18.3555 67.6107-17.5907 68.1888-16.5669 69.0319-17.5907 69.9412-18.3555 70.9168-18.8613 71.8924-19.3672 72.9342-19.6201 74.0423-19.6201 75.4515-19.6201 76.6439-19.3341 77.6195-18.762 78.5951-18.1899 79.3237-17.3498 79.8055-16.2417 80.1548-15.4227 80.3294-14.0978 80.3294-12.2671L80.3294 0 75.2528 0 75.2528-10.9663C75.2528-12.8693 75.0781-14.0978 74.7288-14.6519 74.2591-15.3745 73.5365-15.7358 72.5609-15.7358 71.8503-15.7358 71.1818-15.519 70.5555-15.0854 69.9292-14.6519 69.4775-14.0165 69.2005-13.1794 68.9235-12.3424 68.785-11.0205 68.785-9.21387L68.785 0 63.7083 0 63.7083-10.5146C63.7083-12.3815 63.618-13.5859 63.4373-14.1279 63.2567-14.6699 62.9766-15.0734 62.5973-15.3384 62.2179-15.6034 61.703-15.7358 61.0526-15.7358 60.2697-15.7358 59.5651-15.5251 58.9388-15.1035 58.3125-14.682 57.8639-14.0737 57.5929-13.2788 57.3219-12.4839 57.1864-11.165 57.1864-9.32227L57.1864 0 52.1097 0ZM96.7666-6.10645 101.825-5.25732C101.175-3.40251 100.148-1.99032 98.7449-1.02075 97.3417-0.0511882 95.5863 0.433594 93.4785 0.433594 90.1423 0.433594 87.6732-0.656413 86.0713-2.83643 84.8066-4.58284 84.1743-6.78695 84.1743-9.44873 84.1743-12.6284 85.0054-15.1186 86.6675-16.9192 88.3296-18.7198 90.4313-19.6201 92.9727-19.6201 95.8271-19.6201 98.0794-18.6777 99.7295-16.7927 101.38-14.9078 102.168-12.0202 102.096-8.12988L89.3774-8.12988C89.4136-6.62435 89.8231-5.45304 90.606-4.61597 91.3888-3.77889 92.3644-3.36035 93.5327-3.36035 94.3276-3.36035 94.9961-3.57715 95.5381-4.01074 96.0801-4.44434 96.4896-5.1429 96.7666-6.10645ZM97.0557-11.2373C97.0195-12.7067 96.6401-13.8238 95.9175-14.5886 95.1948-15.3534 94.3156-15.7358 93.2798-15.7358 92.1717-15.7358 91.2563-15.3324 90.5337-14.5254 89.811-13.7184 89.4557-12.6224 89.4678-11.2373ZM111.349 0 106.272 0 106.272-19.1865 110.988-19.1865 110.988-16.4585C111.795-17.7472 112.52-18.5964 113.165-19.0059 113.809-19.4154 114.541-19.6201 115.36-19.6201 116.516-19.6201 117.63-19.3009 118.702-18.6626L117.13-14.2363C116.275-14.7904 115.48-15.0674 114.745-15.0674 114.035-15.0674 113.433-14.8717 112.939-14.4802 112.445-14.0888 112.057-13.3812 111.774-12.3574 111.49-11.3337 111.349-9.18978 111.349-5.92578ZM137.719-13.5137 132.714-12.6104C132.546-13.61 132.163-14.3628 131.567-14.8687 130.971-15.3745 130.197-15.6274 129.245-15.6274 127.981-15.6274 126.972-15.1908 126.219-14.3176 125.467-13.4444 125.09-11.984 125.09-9.93652 125.09-7.66016 125.473-6.05225 126.237-5.11279 127.002-4.17334 128.029-3.70361 129.318-3.70361 130.281-3.70361 131.07-3.97762 131.684-4.52563 132.299-5.07365 132.732-6.01611 132.985-7.35303L137.972-6.50391C137.454-4.21549 136.46-2.48714 134.991-1.31885 133.521-0.150553 131.552 0.433594 129.083 0.433594 126.277 0.433594 124.039-0.45166 122.371-2.22217 120.703-3.99268 119.869-6.44368 119.869-9.5752 119.869-12.7428 120.706-15.2089 122.38-16.9734 124.054-18.7379 126.319-19.6201 129.173-19.6201 131.51-19.6201 133.368-19.1173 134.747-18.1116 136.126-17.1059 137.116-15.5732 137.719-13.5137ZM141.822-21.7881 141.822-26.4854 146.899-26.4854 146.899-21.7881ZM141.822 0 141.822-19.1865 146.899-19.1865 146.899 0ZM150.981-9.86426C150.981-11.5505 151.397-13.1825 152.228-14.7603 153.059-16.3381 154.236-17.5425 155.76-18.3735 157.284-19.2046 158.985-19.6201 160.864-19.6201 163.766-19.6201 166.145-18.6777 168-16.7927 169.855-14.9078 170.782-12.526 170.782-9.64746 170.782-6.74479 169.846-4.33895 167.973-2.42993 166.1-0.520915 163.742 0.433594 160.9 0.433594 159.141 0.433594 157.464 0.0361328 155.868-0.758789 154.273-1.55371 153.059-2.71899 152.228-4.25464 151.397-5.79028 150.981-7.66016 150.981-9.86426ZM156.185-9.59326C156.185-7.69027 156.636-6.23291 157.54-5.22119 158.443-4.20947 159.557-3.70361 160.882-3.70361 162.207-3.70361 163.318-4.20947 164.215-5.22119 165.112-6.23291 165.561-7.70231 165.561-9.62939 165.561-11.5083 165.112-12.9536 164.215-13.9653 163.318-14.9771 162.207-15.4829 160.882-15.4829 159.557-15.4829 158.443-14.9771 157.54-13.9653 156.636-12.9536 156.185-11.4963 156.185-9.59326Z" fill="#FFFFFF" transform="translate(43.5314 68)"/><path d="M2.27637-19.1865 6.95557-19.1865 6.95557-16.5669C8.62972-18.6024 10.623-19.6201 12.9355-19.6201 14.1641-19.6201 15.23-19.3672 16.1333-18.8613 17.0366-18.3555 17.7773-17.5907 18.3555-16.5669 19.1986-17.5907 20.1079-18.3555 21.0835-18.8613 22.0591-19.3672 23.1009-19.6201 24.209-19.6201 25.6182-19.6201 26.8105-19.3341 27.7861-18.762 28.7617-18.1899 29.4904-17.3498 29.9722-16.2417 30.3215-15.4227 30.4961-14.0978 30.4961-12.2671L30.4961 0 25.4194 0 25.4194-10.9663C25.4194-12.8693 25.2448-14.0978 24.8955-14.6519 24.4258-15.3745 23.7031-15.7358 22.7275-15.7358 22.0169-15.7358 21.3485-15.519 20.7222-15.0854 20.0959-14.6519 19.6442-14.0165 19.3672-13.1794 19.0902-12.3424 18.9517-11.0205 18.9517-9.21387L18.9517 0 13.875 0 13.875-10.5146C13.875-12.3815 13.7847-13.5859 13.604-14.1279 13.4233-14.6699 13.1433-15.0734 12.7639-15.3384 12.3845-15.6034 11.8696-15.7358 11.2192-15.7358 10.4364-15.7358 9.73177-15.5251 9.10547-15.1035 8.47917-14.682 8.03052-14.0737 7.75952-13.2788 7.48853-12.4839 7.35303-11.165 7.35303-9.32227L7.35303 0 2.27637 0ZM46.9333-6.10645 51.9919-5.25732C51.3415-3.40251 50.3147-1.99032 48.9115-1.02075 47.5084-0.0511882 45.7529 0.433594 43.6452 0.433594 40.3089 0.433594 37.8398-0.656413 36.238-2.83643 34.9733-4.58284 34.341-6.78695 34.341-9.44873 34.341-12.6284 35.172-15.1186 36.8341-16.9192 38.4963-18.7198 40.598-19.6201 43.1393-19.6201 45.9938-19.6201 48.2461-18.6777 49.8962-16.7927 51.5462-14.9078 52.3351-12.0202 52.2629-8.12988L39.5441-8.12988C39.5802-6.62435 39.9897-5.45304 40.7726-4.61597 41.5555-3.77889 42.5311-3.36035 43.6994-3.36035 44.4943-3.36035 45.1628-3.57715 45.7048-4.01074 46.2467-4.44434 46.6562-5.1429 46.9333-6.10645ZM47.2223-11.2373C47.1862-12.7067 46.8068-13.8238 46.0841-14.5886 45.3615-15.3534 44.4823-15.7358 43.4465-15.7358 42.3384-15.7358 41.423-15.3324 40.7004-14.5254 39.9777-13.7184 39.6224-12.6224 39.6344-11.2373ZM54.2168 0 61.1362-9.88232 54.5059-19.1865 60.7026-19.1865 64.0991-13.9111 67.6763-19.1865 73.6382-19.1865 67.1343-10.0991 74.2344 0 68.0015 0 64.0991-5.94385 60.1606 0ZM77.4891-21.7881 77.4891-26.4854 82.5658-26.4854 82.5658-21.7881ZM77.4891 0 77.4891-19.1865 82.5658-19.1865 82.5658 0ZM104.552-13.5137 99.5475-12.6104C99.3789-13.61 98.9965-14.3628 98.4003-14.8687 97.8041-15.3745 97.0303-15.6274 96.0788-15.6274 94.8141-15.6274 93.8054-15.1908 93.0527-14.3176 92.2999-13.4444 91.9235-11.984 91.9235-9.93652 91.9235-7.66016 92.3059-6.05225 93.0707-5.11279 93.8355-4.17334 94.8623-3.70361 96.151-3.70361 97.1146-3.70361 97.9035-3.97762 98.5177-4.52563 99.132-5.07365 99.5656-6.01611 99.8185-7.35303L104.805-6.50391C104.287-4.21549 103.293-2.48714 101.824-1.31885 100.354-0.150553 98.3853 0.433594 95.9162 0.433594 93.1099 0.433594 90.8726-0.45166 89.2045-2.22217 87.5364-3.99268 86.7023-6.44368 86.7023-9.5752 86.7023-12.7428 87.5394-15.2089 89.2135-16.9734 90.8877-18.7379 93.152-19.6201 96.0065-19.6201 98.3431-19.6201 100.201-19.1173 101.58-18.1116 102.959-17.1059 103.95-15.5732 104.552-13.5137ZM112.45-13.333 107.843-14.1641C108.361-16.0189 109.252-17.3919 110.517-18.2832 111.781-19.1745 113.66-19.6201 116.153-19.6201 118.418-19.6201 120.104-19.3521 121.212-18.8162 122.32-18.2802 123.1-17.5997 123.552-16.7747 124.003-15.9496 124.229-14.4351 124.229-12.231L124.175-6.30518C124.175-4.61898 124.256-3.37541 124.419-2.57446 124.581-1.77352 124.885-0.915365 125.331 0L120.309 0C120.176-0.33724 120.014-0.837077 119.821-1.49951 119.736-1.80062 119.676-1.99935 119.64-2.0957 118.773-1.2526 117.846-0.62028 116.858-0.19873 115.87 0.222819 114.816 0.433594 113.696 0.433594 111.721 0.433594 110.164-0.102376 109.026-1.17432 107.888-2.24626 107.319-3.60124 107.319-5.23926 107.319-6.32324 107.578-7.28979 108.096-8.13892 108.614-8.98804 109.339-9.63843 110.273-10.0901 111.206-10.5417 112.552-10.9362 114.311-11.2734 116.683-11.7191 118.327-12.1346 119.243-12.52L119.243-13.0259C119.243-14.0015 119.002-14.697 118.52-15.1125 118.038-15.5281 117.129-15.7358 115.792-15.7358 114.889-15.7358 114.184-15.5582 113.678-15.2029 113.172-14.8476 112.763-14.2243 112.45-13.333ZM119.243-9.21387C118.592-8.99707 117.562-8.73812 116.153-8.43701 114.744-8.1359 113.823-7.84082 113.389-7.55176 112.727-7.08203 112.396-6.48584 112.396-5.76318 112.396-5.05257 112.66-4.43831 113.19-3.92041 113.72-3.40251 114.395-3.14355 115.214-3.14355 116.129-3.14355 117.002-3.44466 117.834-4.04688 118.448-4.50456 118.851-5.06462 119.044-5.72705 119.176-6.16064 119.243-6.98568 119.243-8.20215ZM146.941 0 141.865 0 141.865-9.79199C141.865-11.8636 141.756-13.2035 141.539-13.8118 141.323-14.42 140.97-14.8927 140.483-15.23 139.995-15.5672 139.408-15.7358 138.721-15.7358 137.842-15.7358 137.053-15.495 136.354-15.0132 135.656-14.5314 135.177-13.8931 134.918-13.0981 134.659-12.3032 134.53-10.8338 134.53-8.68994L134.53 0 129.453 0 129.453-19.1865 134.168-19.1865 134.168-16.3682C135.842-18.5361 137.95-19.6201 140.492-19.6201 141.612-19.6201 142.635-19.4184 143.563-19.0149 144.49-18.6114 145.192-18.0965 145.668-17.4702 146.143-16.8439 146.475-16.1333 146.661-15.3384 146.848-14.5435 146.941-13.4053 146.941-11.9238Z" fill="#FFFFFF" transform="translate(226.198 68)"/><path d="M1.48145-9.86426C1.48145-11.5505 1.89697-13.1825 2.72803-14.7603 3.55908-16.3381 4.73641-17.5425 6.26001-18.3735 7.78361-19.2046 9.48486-19.6201 11.3638-19.6201 14.2664-19.6201 16.6452-18.6777 18.5-16.7927 20.3548-14.9078 21.2822-12.526 21.2822-9.64746 21.2822-6.74479 20.3458-4.33895 18.4729-2.42993 16.6-0.520915 14.2423 0.433594 11.3999 0.433594 9.64144 0.433594 7.96427 0.0361328 6.36841-0.758789 4.77254-1.55371 3.55908-2.71899 2.72803-4.25464 1.89697-5.79028 1.48145-7.66016 1.48145-9.86426ZM6.68457-9.59326C6.68457-7.69027 7.13623-6.23291 8.03955-5.22119 8.94287-4.20947 10.057-3.70361 11.3818-3.70361 12.7067-3.70361 13.8178-4.20947 14.7151-5.22119 15.6124-6.23291 16.061-7.70231 16.061-9.62939 16.061-11.5083 15.6124-12.9536 14.7151-13.9653 13.8178-14.9771 12.7067-15.4829 11.3818-15.4829 10.057-15.4829 8.94287-14.9771 8.03955-13.9653 7.13623-12.9536 6.68457-11.4963 6.68457-9.59326Z" fill="#FFFFFF" transform="translate(375.865 68)"/><path d="M13.7666-6.10645 18.8252-5.25732C18.1748-3.40251 17.148-1.99032 15.7449-1.02075 14.3417-0.0511882 12.5863 0.433594 10.4785 0.433594 7.14225 0.433594 4.67318-0.656413 3.07129-2.83643 1.80664-4.58284 1.17432-6.78695 1.17432-9.44873 1.17432-12.6284 2.00537-15.1186 3.66748-16.9192 5.32959-18.7198 7.43131-19.6201 9.97266-19.6201 12.8271-19.6201 15.0794-18.6777 16.7295-16.7927 18.3796-14.9078 19.1685-12.0202 19.0962-8.12988L6.37744-8.12988C6.41357-6.62435 6.82308-5.45304 7.60596-4.61597 8.38883-3.77889 9.36442-3.36035 10.5327-3.36035 11.3276-3.36035 11.9961-3.57715 12.5381-4.01074 13.0801-4.44434 13.4896-5.1429 13.7666-6.10645ZM14.0557-11.2373C14.0195-12.7067 13.6401-13.8238 12.9175-14.5886 12.1948-15.3534 11.3156-15.7358 10.2798-15.7358 9.17171-15.7358 8.25635-15.3324 7.53369-14.5254 6.81103-13.7184 6.45573-12.6224 6.46777-11.2373ZM40.9412 0 35.8646 0 35.8646-9.79199C35.8646-11.8636 35.7562-13.2035 35.5394-13.8118 35.3226-14.42 34.9703-14.8927 34.4825-15.23 33.9947-15.5672 33.4076-15.7358 32.721-15.7358 31.8418-15.7358 31.0529-15.495 30.3543-15.0132 29.6558-14.5314 29.177-13.8931 28.9181-13.0981 28.6591-12.3032 28.5296-10.8338 28.5296-8.68994L28.5296 0 23.453 0 23.453-19.1865 28.1683-19.1865 28.1683-16.3682C29.8424-18.5361 31.9502-19.6201 34.4915-19.6201 35.6117-19.6201 36.6354-19.4184 37.5628-19.0149 38.4902-18.6114 39.1918-18.0965 39.6676-17.4702 40.1433-16.8439 40.4745-16.1333 40.6612-15.3384 40.8479-14.5435 40.9412-13.4053 40.9412-11.9238ZM55.1208-19.1865 55.1208-15.1396 51.652-15.1396 51.652-7.40723C51.652-5.84147 51.6851-4.92912 51.7514-4.67017 51.8176-4.41121 51.9682-4.19743 52.203-4.02881 52.4379-3.86019 52.724-3.77588 53.0612-3.77588 53.5309-3.77588 54.2114-3.93848 55.1027-4.26367L55.5363-0.325195C54.356 0.180664 53.019 0.433594 51.5256 0.433594 50.6102 0.433594 49.7852 0.280029 49.0505-0.0270996 48.3158-0.334228 47.7768-0.731689 47.4335-1.21948 47.0903-1.70728 46.8524-2.3667 46.7199-3.19775 46.6115-3.78792 46.5573-4.98031 46.5573-6.7749L46.5573-15.1396 44.2267-15.1396 44.2267-19.1865 46.5573-19.1865 46.5573-22.9985 51.652-25.9614 51.652-19.1865ZM63.6823 0 58.6056 0 58.6056-19.1865 63.321-19.1865 63.321-16.4585C64.1279-17.7472 64.8536-18.5964 65.498-19.0059 66.1423-19.4154 66.874-19.6201 67.693-19.6201 68.8493-19.6201 69.9634-19.3009 71.0353-18.6626L69.4635-14.2363C68.6084-14.7904 67.8135-15.0674 67.0788-15.0674 66.3682-15.0674 65.766-14.8717 65.2721-14.4802 64.7783-14.0888 64.3899-13.3812 64.1069-12.3574 63.8238-11.3337 63.6823-9.18978 63.6823-5.92578ZM84.4333-6.10645 89.4919-5.25732C88.8415-3.40251 87.8147-1.99032 86.4115-1.02075 85.0084-0.0511882 83.2529 0.433594 81.1452 0.433594 77.8089 0.433594 75.3398-0.656413 73.738-2.83643 72.4733-4.58284 71.841-6.78695 71.841-9.44873 71.841-12.6284 72.672-15.1186 74.3342-16.9192 75.9963-18.7198 78.098-19.6201 80.6393-19.6201 83.4938-19.6201 85.7461-18.6777 87.3962-16.7927 89.0462-14.9078 89.8351-12.0202 89.7629-8.12988L77.0441-8.12988C77.0802-6.62435 77.4897-5.45304 78.2726-4.61597 79.0555-3.77889 80.0311-3.36035 81.1994-3.36035 81.9943-3.36035 82.6628-3.57715 83.2048-4.01074 83.7467-4.44434 84.1562-5.1429 84.4333-6.10645ZM84.7223-11.2373C84.6862-12.7067 84.3068-13.8238 83.5842-14.5886 82.8615-15.3534 81.9823-15.7358 80.9465-15.7358 79.8384-15.7358 78.923-15.3324 78.2004-14.5254 77.4777-13.7184 77.1224-12.6224 77.1344-11.2373Z" fill="#FFFFFF" transform="translate(66.1114 113)"/><path d="M14.5615 0 9.48486 0 9.48486-19.1323C7.63005-17.3979 5.44401-16.1152 2.92676-15.2842L2.92676-19.8911C4.25163-20.3247 5.69092-21.1467 7.24463-22.3572 8.79834-23.5676 9.86426-24.9798 10.4424-26.5938L14.5615-26.5938ZM22.5135-6.12451 27.4276-6.6665C27.548-5.66683 27.8612-4.92611 28.367-4.44434 28.8729-3.96256 29.5413-3.72168 30.3724-3.72168 31.4202-3.72168 32.3115-4.20345 33.0462-5.16699 33.7809-6.13053 34.2507-8.12988 34.4554-11.165 33.1787-9.68359 31.5828-8.94287 29.6678-8.94287 27.5841-8.94287 25.7865-9.74683 24.275-11.3547 22.7634-12.9626 22.0077-15.0553 22.0077-17.6328 22.0077-20.3187 22.8056-22.4836 24.4014-24.1277 25.9973-25.7717 28.0298-26.5938 30.4989-26.5938 33.1847-26.5938 35.3888-25.5549 37.1112-23.4773 38.8335-21.3997 39.6947-17.9821 39.6947-13.2246 39.6947-8.38281 38.7974-4.88997 37.0028-2.74609 35.2082-0.602214 32.8716 0.469727 29.993 0.469727 27.9214 0.469727 26.2472-0.0812989 24.9705-1.18335 23.6938-2.2854 22.8748-3.93245 22.5135-6.12451ZM34.0037-17.2173C34.0037-18.8553 33.6274-20.126 32.8746-21.0293 32.1218-21.9326 31.2516-22.3843 30.264-22.3843 29.3245-22.3843 28.5447-22.0139 27.9244-21.2732 27.3041-20.5325 26.994-19.319 26.994-17.6328 26.994-15.9225 27.3312-14.6669 28.0057-13.866 28.6802-13.065 29.5233-12.6646 30.535-12.6646 31.5106-12.6646 32.3326-13.05 33.0011-13.8208 33.6695-14.5916 34.0037-15.7238 34.0037-17.2173ZM43.3468-6.12451 48.2609-6.6665C48.3813-5.66683 48.6945-4.92611 49.2004-4.44434 49.7062-3.96256 50.3747-3.72168 51.2057-3.72168 52.2536-3.72168 53.1449-4.20345 53.8796-5.16699 54.6143-6.13053 55.084-8.12988 55.2887-11.165 54.012-9.68359 52.4162-8.94287 50.5011-8.94287 48.4175-8.94287 46.6199-9.74683 45.1083-11.3547 43.5968-12.9626 42.841-15.0553 42.841-17.6328 42.841-20.3187 43.6389-22.4836 45.2348-24.1277 46.8306-25.7717 48.8631-26.5938 51.3322-26.5938 54.0181-26.5938 56.2222-25.5549 57.9445-23.4773 59.6668-21.3997 60.528-17.9821 60.528-13.2246 60.528-8.38281 59.6307-4.88997 57.8361-2.74609 56.0415-0.602214 53.7049 0.469727 50.8263 0.469727 48.7547 0.469727 47.0806-0.0812989 45.8039-1.18335 44.5272-2.2854 43.7082-3.93245 43.3468-6.12451ZM54.8371-17.2173C54.8371-18.8553 54.4607-20.126 53.7079-21.0293 52.9552-21.9326 52.085-22.3843 51.0973-22.3843 50.1579-22.3843 49.378-22.0139 48.7577-21.2732 48.1375-20.5325 47.8273-19.319 47.8273-17.6328 47.8273-15.9225 48.1646-14.6669 48.839-13.866 49.5135-13.065 50.3566-12.6646 51.3683-12.6646 52.3439-12.6646 53.1659-13.05 53.8344-13.8208 54.5028-14.5916 54.8371-15.7238 54.8371-17.2173ZM63.8911-7.02783 68.8052-7.62402C68.9617-6.37142 69.3833-5.4139 70.0698-4.75146 70.7563-4.08903 71.5874-3.75781 72.563-3.75781 73.6108-3.75781 74.4931-4.15527 75.2097-4.9502 75.9263-5.74512 76.2847-6.81706 76.2847-8.16602 76.2847-9.44271 75.9414-10.4544 75.2549-11.2012 74.5684-11.9479 73.7313-12.3213 72.7437-12.3213 72.0933-12.3213 71.3164-12.1948 70.4131-11.9419L70.9731-16.0791C72.3462-16.043 73.394-16.3411 74.1167-16.9734 74.8394-17.6057 75.2007-18.4458 75.2007-19.4937 75.2007-20.3849 74.9357-21.0955 74.4058-21.6255 73.8758-22.1554 73.1712-22.4204 72.292-22.4204 71.4248-22.4204 70.6841-22.1193 70.0698-21.5171 69.4556-20.9149 69.0822-20.0356 68.9497-18.8794L64.2705-19.6743C64.5957-21.2762 65.0865-22.5559 65.7429-23.5134 66.3993-24.4709 67.3147-25.2237 68.489-25.7717 69.6633-26.3197 70.9792-26.5938 72.4365-26.5938 74.9297-26.5938 76.929-25.7988 78.4346-24.209 79.6751-22.9082 80.2954-21.4388 80.2954-19.8008 80.2954-17.4762 79.0247-15.6214 76.4834-14.2363 78.001-13.9111 79.2144-13.1825 80.1238-12.0503 81.0331-10.9181 81.4878-9.55111 81.4878-7.94922 81.4878-5.62467 80.6387-3.64339 78.9404-2.00537 77.2422-0.36735 75.1284 0.45166 72.5991 0.45166 70.2023 0.45166 68.215-0.237874 66.6372-1.61694 65.0594-2.99601 64.144-4.79964 63.8911-7.02783Z" fill="#FFFFFF" transform="translate(167.945 113)"/><path d="M0.25293-19.1865 5.65479-19.1865 10.2437-5.56445 14.7241-19.1865 19.9814-19.1865 13.2065-0.722656 11.9961 2.61963C11.5505 3.73975 11.1259 4.59489 10.7224 5.18506 10.3189 5.77523 9.85522 6.25399 9.3313 6.62134 8.80737 6.98869 8.163 7.27474 7.39819 7.47949 6.63338 7.68424 5.76921 7.78662 4.80566 7.78662 3.83008 7.78662 2.87256 7.68424 1.93311 7.47949L1.48145 3.50488C2.27637 3.66146 2.993 3.73975 3.63135 3.73975 4.81169 3.73975 5.6849 3.39347 6.25098 2.70093 6.81706 2.00838 7.25065 1.12614 7.55176 0.0541992ZM49.8835-4.71533 49.8835 0 32.0881 0C32.2808-1.78255 32.8589-3.47176 33.8224-5.06763 34.786-6.66349 36.689-8.78027 39.5314-11.418 41.8198-13.5498 43.223-14.9951 43.7409-15.7539 44.4395-16.8018 44.7887-17.8376 44.7887-18.8613 44.7887-19.9935 44.4846-20.8637 43.8764-21.4719 43.2681-22.0802 42.4281-22.3843 41.3561-22.3843 40.2962-22.3843 39.4531-22.0651 38.8268-21.4268 38.2005-20.7884 37.8392-19.7285 37.7428-18.2471L32.6842-18.7529C32.9854-21.5472 33.9308-23.5526 35.5207-24.769 37.1105-25.9855 39.0978-26.5938 41.4826-26.5938 44.0962-26.5938 46.1497-25.8892 47.6432-24.48 49.1367-23.0708 49.8835-21.3184 49.8835-19.2227 49.8835-18.0303 49.6697-16.8951 49.2421-15.8171 48.8145-14.7392 48.137-13.61 47.2096-12.4297 46.5954-11.6468 45.4873-10.5207 43.8854-9.05127 42.2835-7.58187 41.2688-6.60628 40.8412-6.12451 40.4137-5.64274 40.0674-5.17301 39.8024-4.71533ZM62.1533-26.5938C64.7188-26.5938 66.7241-25.6784 68.1694-23.8477 69.8918-21.6797 70.7529-18.0845 70.7529-13.062 70.7529-8.05159 69.8857-4.45036 68.1514-2.2583 66.7181-0.45166 64.7188 0.45166 62.1533 0.45166 59.5758 0.45166 57.4982-0.538981 55.9204-2.52026 54.3426-4.50155 53.5537-8.03353 53.5537-13.1162 53.5537-18.1025 54.4209-21.6917 56.1553-23.8838 57.5885-25.6904 59.5879-26.5938 62.1533-26.5938ZM62.1533-22.3843C61.5391-22.3843 60.991-22.1886 60.5093-21.7971 60.0275-21.4057 59.6541-20.7041 59.3892-19.6924 59.0399-18.3796 58.8652-16.1694 58.8652-13.062 58.8652-9.95459 59.0218-7.81974 59.335-6.65747 59.6481-5.4952 60.0426-4.72135 60.5183-4.33594 60.9941-3.95052 61.5391-3.75781 62.1533-3.75781 62.7676-3.75781 63.3156-3.95353 63.7974-4.34497 64.2791-4.73641 64.6525-5.43799 64.9175-6.44971 65.2668-7.75049 65.4414-9.95459 65.4414-13.062 65.4414-16.1694 65.2848-18.3043 64.9717-19.4666 64.6585-20.6288 64.2641-21.4057 63.7883-21.7971 63.3126-22.1886 62.7676-22.3843 62.1533-22.3843ZM91.5501-4.71533 91.5501 0 73.7547 0C73.9474-1.78255 74.5256-3.47176 75.4891-5.06763 76.4526-6.66349 78.3556-8.78027 81.1981-11.418 83.4865-13.5498 84.8896-14.9951 85.4076-15.7539 86.1061-16.8018 86.4554-17.8376 86.4554-18.8613 86.4554-19.9935 86.1513-20.8637 85.5431-21.4719 84.9348-22.0802 84.0947-22.3843 83.0228-22.3843 81.9629-22.3843 81.1198-22.0651 80.4935-21.4268 79.8672-20.7884 79.5059-19.7285 79.4095-18.2471L74.3509-18.7529C74.652-21.5472 75.5975-23.5526 77.1873-24.769 78.7772-25.9855 80.7645-26.5938 83.1493-26.5938 85.7629-26.5938 87.8164-25.8892 89.3099-24.48 90.8034-23.0708 91.5501-21.3184 91.5501-19.2227 91.5501-18.0303 91.3363-16.8951 90.9088-15.8171 90.4812-14.7392 89.8037-13.61 88.8763-12.4297 88.262-11.6468 87.154-10.5207 85.5521-9.05127 83.9502-7.58187 82.9355-6.60628 82.5079-6.12451 82.0803-5.64274 81.7341-5.17301 81.4691-4.71533ZM112.383-4.71533 112.383 0 94.5881 0C94.7808-1.78255 95.3589-3.47176 96.3224-5.06763 97.286-6.66349 99.189-8.78027 102.031-11.418 104.32-13.5498 105.723-14.9951 106.241-15.7539 106.939-16.8018 107.289-17.8376 107.289-18.8613 107.289-19.9935 106.985-20.8637 106.376-21.4719 105.768-22.0802 104.928-22.3843 103.856-22.3843 102.796-22.3843 101.953-22.0651 101.327-21.4268 100.701-20.7884 100.339-19.7285 100.243-18.2471L95.1842-18.7529C95.4854-21.5472 96.4308-23.5526 98.0207-24.769 99.6105-25.9855 101.598-26.5938 103.983-26.5938 106.596-26.5938 108.65-25.8892 110.143-24.48 111.637-23.0708 112.383-21.3184 112.383-19.2227 112.383-18.0303 112.17-16.8951 111.742-15.8171 111.315-14.7392 110.637-13.61 109.71-12.4297 109.095-11.6468 107.987-10.5207 106.385-9.05127 104.784-7.58187 103.769-6.60628 103.341-6.12451 102.914-5.64274 102.567-5.17301 102.302-4.71533Z" fill="#FFFFFF" transform="translate(261.611 113)"/></g></g><path d="M43 37.0003C43 22.6407 54.6407 11 69.0003 11L427 11C441.359 11 453 22.6407 453 37.0003L453 141C453 155.359 441.359 167 427 167L69.0003 167C54.6407 167 43 155.359 43 141Z" fill="url(#fill4)" fill-rule="evenodd"/><text fill="#FFFFFF" font-family="Arial,Arial_MSFontService,sans-serif" font-weight="700" font-size="37" transform="translate(70.3892 80)">Comercio</text><text fill="#FFFFFF" font-family="Arial,Arial_MSFontService,sans-serif" font-weight="700" font-size="37" transform="translate(253.056 80)">mexican</text><text fill="#FFFFFF" font-family="Arial,Arial_MSFontService,sans-serif" font-weight="700" font-size="37" transform="translate(402.723 80)">o</text><text fill="#FFFFFF" font-family="Arial,Arial_MSFontService,sans-serif" font-weight="700" font-size="37" transform="translate(92.9692 125)">entre</text><text fill="#FFFFFF" font-family="Arial,Arial_MSFontService,sans-serif" font-weight="700" font-size="37" transform="translate(194.803 125)">1993</text><text fill="#FFFFFF" font-family="Arial,Arial_MSFontService,sans-serif" font-weight="700" font-size="37" transform="translate(288.469 125)">y 2022</text></g></svg>