<svg width="1280" height="720" xmlns="http://www.w3.org/2000/svg" xmlns:xlink="http://www.w3.org/1999/xlink" overflow="hidden"><defs><filter id="fx0" x="-10%" y="-10%" width="120%" height="120%" filterUnits="userSpaceOnUse" primitiveUnits="userSpaceOnUse"><feComponentTransfer color-interpolation-filters="sRGB"><feFuncR type="discrete" tableValues="0 0"/><feFuncG type="discrete" tableValues="0 0"/><feFuncB type="discrete" tableValues="0 0"/><feFuncA type="linear" slope="0.4" intercept="0"/></feComponentTransfer><feGaussianBlur stdDeviation="6.66667 6.66667"/></filter><filter id="fx1" x="-10%" y="-10%" width="120%" height="120%" filterUnits="userSpaceOnUse" primitiveUnits="userSpaceOnUse"><feComponentTransfer color-interpolation-filters="sRGB"><feFuncR type="discrete" tableValues="0 0"/><feFuncG type="discrete" tableValues="0 0"/><feFuncB type="discrete" tableValues="0 0"/><feFuncA type="linear" slope="0.4" intercept="0"/></feComponentTransfer><feGaussianBlur stdDeviation="6.66667 6.66667"/></filter><filter id="fx2" x="-10%" y="-10%" width="120%" height="120%" filterUnits="userSpaceOnUse" primitiveUnits="userSpaceOnUse"><feComponentTransfer color-interpolation-filters="sRGB"><feFuncR type="discrete" tableValues="0 0"/><feFuncG type="discrete" tableValues="0 0"/><feFuncB type="discrete" tableValues="0 0"/><feFuncA type="linear" slope="0.4" intercept="0"/></feComponentTransfer><feGaussianBlur stdDeviation="6.66667 6.66667"/></filter><filter id="fx3" x="-10%" y="-10%" width="120%" height="120%" filterUnits="userSpaceOnUse" primitiveUnits="userSpaceOnUse"><feComponentTransfer color-interpolation-filters="sRGB"><feFuncR type="discrete" tableValues="0 0"/><feFuncG type="discrete" tableValues="0 0"/><feFuncB type="discrete" tableValues="0 0"/><feFuncA type="linear" slope="0.4" intercept="0"/></feComponentTransfer><feGaussianBlur stdDeviation="6.66667 6.66667"/></filter><filter id="fx4" x="-10%" y="-10%" width="120%" height="120%" filterUnits="userSpaceOnUse" primitiveUnits="userSpaceOnUse"><feComponentTransfer color-interpolation-filters="sRGB"><feFuncR type="discrete" tableValues="0 0"/><feFuncG type="discrete" tableValues="0 0"/><feFuncB type="discrete" tableValues="0 0"/><feFuncA type="linear" slope="0.4" intercept="0"/></feComponentTransfer><feGaussianBlur stdDeviation="6.66667 6.66667"/></filter><filter id="fx5" x="-10%" y="-10%" width="120%" height="120%" filterUnits="userSpaceOnUse" primitiveUnits="userSpaceOnUse"><feComponentTransfer color-interpolation-filters="sRGB"><feFuncR type="discrete" tableValues="0 0"/><feFuncG type="discrete" tableValues="0 0"/><feFuncB type="discrete" tableValues="0 0"/><feFuncA type="linear" slope="0.4" intercept="0"/></feComponentTransfer><feGaussianBlur stdDeviation="6.66667 6.66667"/></filter><filter id="fx6" x="-10%" y="-10%" width="120%" height="120%" filterUnits="userSpaceOnUse" primitiveUnits="userSpaceOnUse"><feComponentTransfer color-interpolation-filters="sRGB"><feFuncR type="discrete" tableValues="0 0"/><feFuncG type="discrete" tableValues="0 0"/><feFuncB type="discrete" tableValues="0 0"/><feFuncA type="linear" slope="0.4" intercept="0"/></feComponentTransfer><feGaussianBlur stdDeviation="6.66667 6.66667"/></filter><filter id="fx7" x="-10%" y="-10%" width="120%" height="120%" filterUnits="userSpaceOnUse" primitiveUnits="userSpaceOnUse"><feComponentTransfer color-interpolation-filters="sRGB"><feFuncR type="discrete" tableValues="0 0"/><feFuncG type="discrete" tableValues="0 0"/><feFuncB type="discrete" tableValues="0 0"/><feFuncA type="linear" slope="0.4" intercept="0"/></feComponentTransfer><feGaussianBlur stdDeviation="6.66667 6.66667"/></filter><filter id="fx8" x="-10%" y="-10%" width="120%" height="120%" filterUnits="userSpaceOnUse" primitiveUnits="userSpaceOnUse"><feComponentTransfer color-interpolation-filters="sRGB"><feFuncR type="discrete" tableValues="0 0"/><feFuncG type="discrete" tableValues="0 0"/><feFuncB type="discrete" tableValues="0 0"/><feFuncA type="linear" slope="0.4" intercept="0"/></feComponentTransfer><feGaussianBlur stdDeviation="6.66667 6.66667"/></filter><filter id="fx9" x="-10%" y="-10%" width="120%" height="120%" filterUnits="userSpaceOnUse" primitiveUnits="userSpaceOnUse"><feComponentTransfer color-interpolation-filters="sRGB"><feFuncR type="discrete" tableValues="0 0"/><feFuncG type="discrete" tableValues="0 0"/><feFuncB type="discrete" tableValues="0 0"/><feFuncA type="linear" slope="0.4" intercept="0"/></feComponentTransfer><feGaussianBlur stdDeviation="6.66667 6.66667"/></filter><clipPath id="clip10"><rect x="0" y="0" width="1280" height="720"/></clipPath><linearGradient x1="32.75" y1="206.25" x2="161.25" y2="334.75" gradientUnits="userSpaceOnUse" spreadMethod="reflect" id="fill11"><stop offset="0" stop-color="#FFFFFF"/><stop offset="1" stop-color="#FFFFFF"/><stop offset="1" stop-color="#F2F2F2"/><stop offset="1" stop-color="#EDEEF3"/><stop offset="1" stop-color="#EDEEF3"/><stop offset="1" stop-color="#F3F4F7"/></linearGradient><clipPath id="clip12"><rect x="19" y="15" width="991" height="116"/></clipPath><linearGradient x1="252.5" y1="-208.5" x2="784.5" y2="323.5" gradientUnits="userSpaceOnUse" spreadMethod="reflect" id="fill13"><stop offset="0" stop-color="#29659E"/><stop offset="0" stop-color="#215F9A"/><stop offset="0" stop-color="#215F9A"/><stop offset="0" stop-color="#215F9A"/><stop offset="0" stop-color="#215F9A"/><stop offset="0" stop-color="#215F9A"/><stop offset="0" stop-color="#215F9A"/><stop offset="0.03" stop-color="#4578AA"/><stop offset="1" stop-color="#4578AA"/></linearGradient><linearGradient x1="33" y1="345" x2="161" y2="473" gradientUnits="userSpaceOnUse" spreadMethod="reflect" id="fill14"><stop offset="0" stop-color="#FFFFFF"/><stop offset="1" stop-color="#FFFFFF"/><stop offset="1" stop-color="#F2F2F2"/><stop offset="1" stop-color="#EDEEF3"/><stop offset="1" stop-color="#EDEEF3"/><stop offset="1" stop-color="#F3F4F7"/></linearGradient><linearGradient x1="33" y1="484" x2="161" y2="612" gradientUnits="userSpaceOnUse" spreadMethod="reflect" id="fill15"><stop offset="0" stop-color="#FFFFFF"/><stop offset="1" stop-color="#FFFFFF"/><stop offset="1" stop-color="#F2F2F2"/><stop offset="1" stop-color="#EDEEF3"/><stop offset="1" stop-color="#EDEEF3"/><stop offset="1" stop-color="#F3F4F7"/></linearGradient></defs><g clip-path="url(#clip10)"><rect x="0" y="0" width="1280" height="720" fill="#FFFFFF"/><path d="M0 37.9204C-2.48858e-15 30.7847 5.78467 25 12.9204 25L1238.08 25C1245.22 25 1251 30.7847 1251 37.9204L1251 707.08C1251 714.215 1245.22 720 1238.08 720L12.9204 720C5.78467 720 0 714.215 0 707.08Z" fill="#DCEAF7" fill-rule="evenodd"/><g filter="url(#fx0)" transform="translate(22 203)"><g><path d="M21.1421 29.2092C21.1421 24.7539 24.7539 21.1421 29.2092 21.1421L149.075 21.1421C153.53 21.1421 157.142 24.7539 157.142 29.2092L157.142 134.075C157.142 138.53 153.53 142.142 149.075 142.142L29.2092 142.142C24.7539 142.142 21.1421 138.53 21.1421 134.075Z" fill="#FF0000" fill-rule="evenodd"/></g></g><path d="M29 218.067C29 213.612 32.6117 210 37.067 210L156.933 210C161.388 210 165 213.612 165 218.067L165 322.933C165 327.388 161.388 331 156.933 331L37.067 331C32.6117 331 29 327.388 29 322.933Z" fill="url(#fill11)" fill-rule="evenodd"/><g filter="url(#fx1)" transform="translate(22 8)"><g><path d="M21.1421 26.8091C21.1421 23.6793 23.6793 21.1421 26.8091 21.1421L994.475 21.1421C997.605 21.1421 1000.14 23.6793 1000.14 26.8091L1000.14 100.475C1000.14 103.605 997.605 106.142 994.475 106.142L26.8091 106.142C23.6793 106.142 21.1421 103.605 21.1421 100.475Z" fill="#FF0000" fill-rule="evenodd"/></g></g><g clip-path="url(#clip12)" filter="url(#fx2)" transform="translate(19 3)"><g><path d="M2.3125-22.9062 10.7656-22.9062C12.6719-22.9062 14.125-22.7604 15.125-22.4688 16.4688-22.0729 17.6198-21.3698 18.5781-20.3594 19.5365-19.349 20.2656-18.112 20.7656-16.6484 21.2656-15.1849 21.5156-13.3802 21.5156-11.2344 21.5156-9.34896 21.2812-7.72396 20.8125-6.35938 20.2396-4.69271 19.4219-3.34375 18.3594-2.3125 17.5573-1.53125 16.474-0.921875 15.1094-0.484375 14.0885-0.161458 12.724 0 11.0156 0L2.3125 0ZM6.9375-19.0312 6.9375-3.85938 10.3906-3.85938C11.6823-3.85938 12.6146-3.93229 13.1875-4.07812 13.9375-4.26562 14.5599-4.58333 15.0547-5.03125 15.5495-5.47917 15.9531-6.21615 16.2656-7.24219 16.5781-8.26823 16.7344-9.66667 16.7344-11.4375 16.7344-13.2083 16.5781-14.5677 16.2656-15.5156 15.9531-16.4635 15.5156-17.2031 14.9531-17.7344 14.3906-18.2656 13.6771-18.625 12.8125-18.8125 12.1667-18.9583 10.901-19.0312 9.01562-19.0312ZM28.7448-11.5312 24.7604-12.25C25.2083-13.8542 25.9792-15.0417 27.0729-15.8125 28.1667-16.5833 29.7917-16.9688 31.9479-16.9688 33.9062-16.9688 35.3646-16.737 36.3229-16.2734 37.2812-15.8099 37.9557-15.2214 38.3464-14.5078 38.737-13.7943 38.9323-12.4844 38.9323-10.5781L38.8854-5.45312C38.8854-3.99479 38.9557-2.91927 39.0964-2.22656 39.237-1.53385 39.5-0.791667 39.8854 0L35.5417 0C35.4271-0.291667 35.2865-0.723958 35.1198-1.29688 35.0469-1.55729 34.9948-1.72917 34.9635-1.8125 34.2135-1.08333 33.4115-0.536458 32.5573-0.171875 31.7031 0.192708 30.7917 0.375 29.8229 0.375 28.1146 0.375 26.7682-0.0885417 25.7839-1.01562 24.7995-1.94271 24.3073-3.11458 24.3073-4.53125 24.3073-5.46875 24.5312-6.30469 24.9792-7.03906 25.4271-7.77344 26.0547-8.33594 26.862-8.72656 27.6693-9.11719 28.8333-9.45833 30.3542-9.75 32.4062-10.1354 33.8281-10.4948 34.6198-10.8281L34.6198-11.2656C34.6198-12.1094 34.4115-12.7109 33.9948-13.0703 33.5781-13.4297 32.7917-13.6094 31.6354-13.6094 30.8542-13.6094 30.2448-13.4557 29.8073-13.1484 29.3698-12.8411 29.0156-12.3021 28.7448-11.5312ZM34.6198-7.96875C34.0573-7.78125 33.1667-7.55729 31.9479-7.29688 30.7292-7.03646 29.9323-6.78125 29.5573-6.53125 28.9844-6.125 28.6979-5.60938 28.6979-4.98438 28.6979-4.36979 28.9271-3.83854 29.3854-3.39062 29.8438-2.94271 30.4271-2.71875 31.1354-2.71875 31.9271-2.71875 32.6823-2.97917 33.401-3.5 33.9323-3.89583 34.2812-4.38021 34.4479-4.95312 34.5625-5.32812 34.6198-6.04167 34.6198-7.09375ZM50.9062-16.5938 50.9062-13.0938 47.9062-13.0938 47.9062-6.40625C47.9062-5.05208 47.9349-4.26302 47.9922-4.03906 48.0495-3.8151 48.1797-3.63021 48.3828-3.48438 48.5859-3.33854 48.8333-3.26562 49.125-3.26562 49.5312-3.26562 50.1198-3.40625 50.8906-3.6875L51.2656-0.28125C50.2448 0.15625 49.0885 0.375 47.7969 0.375 47.0052 0.375 46.2917 0.242187 45.6562-0.0234375 45.0208-0.289062 44.5547-0.632812 44.2578-1.05469 43.9609-1.47656 43.7552-2.04688 43.6406-2.76562 43.5469-3.27604 43.5-4.30729 43.5-5.85938L43.5-13.0938 41.4844-13.0938 41.4844-16.5938 43.5-16.5938 43.5-19.8906 47.9062-22.4531 47.9062-16.5938ZM52.9479-8.53125C52.9479-9.98958 53.3073-11.401 54.026-12.7656 54.7448-14.1302 55.763-15.1719 57.0807-15.8906 58.3984-16.6094 59.8698-16.9688 61.4948-16.9688 64.0052-16.9688 66.0625-16.1536 67.6667-14.5234 69.2708-12.8932 70.0729-10.8333 70.0729-8.34375 70.0729-5.83333 69.263-3.7526 67.6432-2.10156 66.0234-0.450521 63.9844 0.375 61.526 0.375 60.0052 0.375 58.5547 0.03125 57.1745-0.65625 55.7943-1.34375 54.7448-2.35156 54.026-3.67969 53.3073-5.00781 52.9479-6.625 52.9479-8.53125ZM57.4479-8.29688C57.4479-6.65104 57.8385-5.39062 58.6198-4.51562 59.401-3.64062 60.3646-3.20312 61.5104-3.20312 62.6562-3.20312 63.6172-3.64062 64.3932-4.51562 65.1693-5.39062 65.5573-6.66146 65.5573-8.32812 65.5573-9.95312 65.1693-11.2031 64.3932-12.0781 63.6172-12.9531 62.6562-13.3906 61.5104-13.3906 60.3646-13.3906 59.401-12.9531 58.6198-12.0781 57.8385-11.2031 57.4479-9.94271 57.4479-8.29688ZM71.9167-4.73438 76.3229-5.40625C76.5104-4.55208 76.8906-3.90365 77.4635-3.46094 78.0365-3.01823 78.8385-2.79688 79.8698-2.79688 81.0052-2.79688 81.8594-3.00521 82.4323-3.42188 82.8177-3.71354 83.0104-4.10417 83.0104-4.59375 83.0104-4.92708 82.9062-5.20312 82.6979-5.42188 82.4792-5.63021 81.9896-5.82292 81.2292-6 77.6875-6.78125 75.4427-7.49479 74.4948-8.14062 73.1823-9.03646 72.526-10.2812 72.526-11.875 72.526-13.3125 73.0938-14.5208 74.2292-15.5 75.3646-16.4792 77.125-16.9688 79.5104-16.9688 81.7812-16.9688 83.4688-16.599 84.5729-15.8594 85.6771-15.1198 86.4375-14.026 86.8542-12.5781L82.7135-11.8125C82.5365-12.4583 82.2005-12.9531 81.7057-13.2969 81.2109-13.6406 80.5052-13.8125 79.5885-13.8125 78.4323-13.8125 77.6042-13.651 77.1042-13.3281 76.7708-13.099 76.6042-12.8021 76.6042-12.4375 76.6042-12.125 76.75-11.8594 77.0417-11.6406 77.4375-11.349 78.8047-10.9375 81.1432-10.4062 83.4818-9.875 85.1146-9.22396 86.0417-8.45312 86.9583-7.67188 87.4167-6.58333 87.4167-5.1875 87.4167-3.66667 86.7812-2.35938 85.5104-1.26562 84.2396-0.171875 82.3594 0.375 79.8698 0.375 77.6094 0.375 75.8203-0.0833334 74.5026-1 73.1849-1.91667 72.3229-3.16146 71.9167-4.73438ZM98.5833-4.73438 102.99-5.40625C103.177-4.55208 103.557-3.90365 104.13-3.46094 104.703-3.01823 105.505-2.79688 106.536-2.79688 107.672-2.79688 108.526-3.00521 109.099-3.42188 109.484-3.71354 109.677-4.10417 109.677-4.59375 109.677-4.92708 109.573-5.20312 109.365-5.42188 109.146-5.63021 108.656-5.82292 107.896-6 104.354-6.78125 102.109-7.49479 101.161-8.14062 99.849-9.03646 99.1927-10.2812 99.1927-11.875 99.1927-13.3125 99.7604-14.5208 100.896-15.5 102.031-16.4792 103.792-16.9688 106.177-16.9688 108.448-16.9688 110.135-16.599 111.24-15.8594 112.344-15.1198 113.104-14.026 113.521-12.5781L109.38-11.8125C109.203-12.4583 108.867-12.9531 108.372-13.2969 107.878-13.6406 107.172-13.8125 106.255-13.8125 105.099-13.8125 104.271-13.651 103.771-13.3281 103.438-13.099 103.271-12.8021 103.271-12.4375 103.271-12.125 103.417-11.8594 103.708-11.6406 104.104-11.349 105.471-10.9375 107.81-10.4062 110.148-9.875 111.781-9.22396 112.708-8.45312 113.625-7.67188 114.083-6.58333 114.083-5.1875 114.083-3.66667 113.448-2.35938 112.177-1.26562 110.906-0.171875 109.026 0.375 106.536 0.375 104.276 0.375 102.487-0.0833334 101.169-1 99.8516-1.91667 98.9896-3.16146 98.5833-4.73438ZM116.948-8.53125C116.948-9.98958 117.307-11.401 118.026-12.7656 118.745-14.1302 119.763-15.1719 121.081-15.8906 122.398-16.6094 123.87-16.9688 125.495-16.9688 128.005-16.9688 130.063-16.1536 131.667-14.5234 133.271-12.8932 134.073-10.8333 134.073-8.34375 134.073-5.83333 133.263-3.7526 131.643-2.10156 130.023-0.450521 127.984 0.375 125.526 0.375 124.005 0.375 122.555 0.03125 121.174-0.65625 119.794-1.34375 118.745-2.35156 118.026-3.67969 117.307-5.00781 116.948-6.625 116.948-8.53125ZM121.448-8.29688C121.448-6.65104 121.839-5.39062 122.62-4.51562 123.401-3.64062 124.365-3.20312 125.51-3.20312 126.656-3.20312 127.617-3.64062 128.393-4.51562 129.169-5.39062 129.557-6.66146 129.557-8.32812 129.557-9.95312 129.169-11.2031 128.393-12.0781 127.617-12.9531 126.656-13.3906 125.51-13.3906 124.365-13.3906 123.401-12.9531 122.62-12.0781 121.839-11.2031 121.448-9.94271 121.448-8.29688ZM137.276 0 137.276-22.9062 141.667-22.9062 141.667-14.6562C143.021-16.1979 144.625-16.9688 146.479-16.9688 148.5-16.9688 150.172-16.237 151.495-14.7734 152.818-13.3099 153.479-11.2083 153.479-8.46875 153.479-5.63542 152.805-3.45312 151.456-1.92188 150.107-0.390625 148.469 0.375 146.542 0.375 145.594 0.375 144.659 0.138021 143.737-0.335938 142.815-0.809896 142.021-1.51042 141.354-2.4375L141.354 0ZM141.635-8.65625C141.635-6.9375 141.906-5.66667 142.448-4.84375 143.208-3.67708 144.219-3.09375 145.479-3.09375 146.448-3.09375 147.273-3.50781 147.956-4.33594 148.638-5.16406 148.979-6.46875 148.979-8.25 148.979-10.1458 148.635-11.513 147.948-12.3516 147.26-13.1901 146.38-13.6094 145.307-13.6094 144.255-13.6094 143.38-13.2005 142.682-12.3828 141.984-11.5651 141.635-10.3229 141.635-8.65625ZM161.167 0 156.776 0 156.776-16.5938 160.854-16.5938 160.854-14.2344C161.552-15.349 162.18-16.0833 162.737-16.4375 163.294-16.7917 163.927-16.9688 164.635-16.9688 165.635-16.9688 166.599-16.6927 167.526-16.1406L166.167-12.3125C165.427-12.7917 164.74-13.0312 164.104-13.0312 163.49-13.0312 162.969-12.862 162.542-12.5234 162.115-12.1849 161.779-11.5729 161.534-10.6875 161.289-9.80208 161.167-7.94792 161.167-5.125ZM179.073-5.28125 183.448-4.54688C182.885-2.94271 181.997-1.72135 180.784-0.882812 179.57-0.0442709 178.052 0.375 176.229 0.375 173.344 0.375 171.208-0.567708 169.823-2.45312 168.729-3.96354 168.182-5.86979 168.182-8.17188 168.182-10.9219 168.901-13.0755 170.339-14.6328 171.776-16.1901 173.594-16.9688 175.792-16.9688 178.26-16.9688 180.208-16.1536 181.635-14.5234 183.063-12.8932 183.745-10.3958 183.682-7.03125L172.682-7.03125C172.714-5.72917 173.068-4.71615 173.745-3.99219 174.422-3.26823 175.266-2.90625 176.276-2.90625 176.964-2.90625 177.542-3.09375 178.01-3.46875 178.479-3.84375 178.833-4.44792 179.073-5.28125ZM179.323-9.71875C179.292-10.9896 178.964-11.9557 178.339-12.6172 177.714-13.2786 176.953-13.6094 176.057-13.6094 175.099-13.6094 174.307-13.2604 173.682-12.5625 173.057-11.8646 172.75-10.9167 172.76-9.71875ZM196.13 0 196.13-22.9062 200.521-22.9062 200.521 0ZM208.245-11.5312 204.26-12.25C204.708-13.8542 205.479-15.0417 206.573-15.8125 207.667-16.5833 209.292-16.9688 211.448-16.9688 213.406-16.9688 214.865-16.737 215.823-16.2734 216.781-15.8099 217.456-15.2214 217.846-14.5078 218.237-13.7943 218.432-12.4844 218.432-10.5781L218.385-5.45312C218.385-3.99479 218.456-2.91927 218.596-2.22656 218.737-1.53385 219-0.791667 219.385 0L215.042 0C214.927-0.291667 214.786-0.723958 214.62-1.29688 214.547-1.55729 214.495-1.72917 214.464-1.8125 213.714-1.08333 212.911-0.536458 212.057-0.171875 211.203 0.192708 210.292 0.375 209.323 0.375 207.615 0.375 206.268-0.0885417 205.284-1.01562 204.299-1.94271 203.807-3.11458 203.807-4.53125 203.807-5.46875 204.031-6.30469 204.479-7.03906 204.927-7.77344 205.555-8.33594 206.362-8.72656 207.169-9.11719 208.333-9.45833 209.854-9.75 211.906-10.1354 213.328-10.4948 214.12-10.8281L214.12-11.2656C214.12-12.1094 213.911-12.7109 213.495-13.0703 213.078-13.4297 212.292-13.6094 211.135-13.6094 210.354-13.6094 209.745-13.4557 209.307-13.1484 208.87-12.8411 208.516-12.3021 208.245-11.5312ZM214.12-7.96875C213.557-7.78125 212.667-7.55729 211.448-7.29688 210.229-7.03646 209.432-6.78125 209.057-6.53125 208.484-6.125 208.198-5.60938 208.198-4.98438 208.198-4.36979 208.427-3.83854 208.885-3.39062 209.344-2.94271 209.927-2.71875 210.635-2.71875 211.427-2.71875 212.182-2.97917 212.901-3.5 213.432-3.89583 213.781-4.38021 213.948-4.95312 214.062-5.32812 214.12-6.04167 214.12-7.09375ZM221.25-4.73438 225.656-5.40625C225.844-4.55208 226.224-3.90365 226.797-3.46094 227.37-3.01823 228.172-2.79688 229.203-2.79688 230.339-2.79688 231.193-3.00521 231.766-3.42188 232.151-3.71354 232.344-4.10417 232.344-4.59375 232.344-4.92708 232.24-5.20312 232.031-5.42188 231.812-5.63021 231.323-5.82292 230.562-6 227.021-6.78125 224.776-7.49479 223.828-8.14062 222.516-9.03646 221.859-10.2812 221.859-11.875 221.859-13.3125 222.427-14.5208 223.562-15.5 224.698-16.4792 226.458-16.9688 228.844-16.9688 231.115-16.9688 232.802-16.599 233.906-15.8594 235.01-15.1198 235.771-14.026 236.188-12.5781L232.047-11.8125C231.87-12.4583 231.534-12.9531 231.039-13.2969 230.544-13.6406 229.839-13.8125 228.922-13.8125 227.766-13.8125 226.938-13.651 226.438-13.3281 226.104-13.099 225.937-12.8021 225.938-12.4375 225.937-12.125 226.083-11.8594 226.375-11.6406 226.771-11.349 228.138-10.9375 230.477-10.4062 232.815-9.875 234.448-9.22396 235.375-8.45312 236.292-7.67188 236.75-6.58333 236.75-5.1875 236.75-3.66667 236.115-2.35938 234.844-1.26562 233.573-0.171875 231.693 0.375 229.203 0.375 226.943 0.375 225.154-0.0833334 223.836-1 222.518-1.91667 221.656-3.16146 221.25-4.73438ZM254.026 0 247.339-16.5938 251.948-16.5938 255.073-8.125 255.979-5.29688C256.219-6.01562 256.37-6.48958 256.432-6.71875 256.578-7.1875 256.734-7.65625 256.901-8.125L260.057-16.5938 264.573-16.5938 257.979 0ZM276.906-5.28125 281.281-4.54688C280.719-2.94271 279.831-1.72135 278.617-0.882812 277.404-0.0442709 275.885 0.375 274.062 0.375 271.177 0.375 269.042-0.567708 267.656-2.45312 266.562-3.96354 266.016-5.86979 266.016-8.17188 266.016-10.9219 266.734-13.0755 268.172-14.6328 269.609-16.1901 271.427-16.9688 273.625-16.9688 276.094-16.9688 278.042-16.1536 279.469-14.5234 280.896-12.8932 281.578-10.3958 281.516-7.03125L270.516-7.03125C270.547-5.72917 270.901-4.71615 271.578-3.99219 272.255-3.26823 273.099-2.90625 274.109-2.90625 274.797-2.90625 275.375-3.09375 275.844-3.46875 276.312-3.84375 276.667-4.44792 276.906-5.28125ZM277.156-9.71875C277.125-10.9896 276.797-11.9557 276.172-12.6172 275.547-13.2786 274.786-13.6094 273.891-13.6094 272.932-13.6094 272.141-13.2604 271.516-12.5625 270.891-11.8646 270.583-10.9167 270.594-9.71875ZM300.224 0 295.833 0 295.833-8.46875C295.833-10.2604 295.74-11.4193 295.552-11.9453 295.365-12.4714 295.06-12.8802 294.638-13.1719 294.216-13.4635 293.708-13.6094 293.115-13.6094 292.354-13.6094 291.672-13.401 291.068-12.9844 290.464-12.5677 290.049-12.0156 289.826-11.3281 289.602-10.6406 289.49-9.36979 289.49-7.51562L289.49 0 285.099 0 285.099-16.5938 289.177-16.5938 289.177-14.1562C290.625-16.0312 292.448-16.9688 294.646-16.9688 295.615-16.9688 296.5-16.7943 297.302-16.4453 298.104-16.0964 298.711-15.651 299.122-15.1094 299.534-14.5677 299.82-13.9531 299.982-13.2656 300.143-12.5781 300.224-11.5937 300.224-10.3125ZM312.24-16.5938 312.24-13.0938 309.24-13.0938 309.24-6.40625C309.24-5.05208 309.268-4.26302 309.326-4.03906 309.383-3.8151 309.513-3.63021 309.716-3.48438 309.919-3.33854 310.167-3.26562 310.458-3.26562 310.865-3.26562 311.453-3.40625 312.224-3.6875L312.599-0.28125C311.578 0.15625 310.422 0.375 309.13 0.375 308.339 0.375 307.625 0.242187 306.99-0.0234375 306.354-0.289062 305.888-0.632812 305.591-1.05469 305.294-1.47656 305.089-2.04688 304.974-2.76562 304.88-3.27604 304.833-4.30729 304.833-5.85938L304.833-13.0938 302.818-13.0938 302.818-16.5938 304.833-16.5938 304.833-19.8906 309.24-22.4531 309.24-16.5938ZM318.578-11.5312 314.594-12.25C315.042-13.8542 315.812-15.0417 316.906-15.8125 318-16.5833 319.625-16.9688 321.781-16.9688 323.74-16.9688 325.198-16.737 326.156-16.2734 327.115-15.8099 327.789-15.2214 328.18-14.5078 328.57-13.7943 328.766-12.4844 328.766-10.5781L328.719-5.45312C328.719-3.99479 328.789-2.91927 328.93-2.22656 329.07-1.53385 329.333-0.791667 329.719 0L325.375 0C325.26-0.291667 325.12-0.723958 324.953-1.29688 324.88-1.55729 324.828-1.72917 324.797-1.8125 324.047-1.08333 323.245-0.536458 322.391-0.171875 321.536 0.192708 320.625 0.375 319.656 0.375 317.948 0.375 316.602-0.0885417 315.617-1.01562 314.633-1.94271 314.141-3.11458 314.141-4.53125 314.141-5.46875 314.365-6.30469 314.812-7.03906 315.26-7.77344 315.888-8.33594 316.695-8.72656 317.503-9.11719 318.667-9.45833 320.188-9.75 322.24-10.1354 323.661-10.4948 324.453-10.8281L324.453-11.2656C324.453-12.1094 324.245-12.7109 323.828-13.0703 323.411-13.4297 322.625-13.6094 321.469-13.6094 320.688-13.6094 320.078-13.4557 319.641-13.1484 319.203-12.8411 318.849-12.3021 318.578-11.5312ZM324.453-7.96875C323.891-7.78125 323-7.55729 321.781-7.29688 320.562-7.03646 319.766-6.78125 319.391-6.53125 318.818-6.125 318.531-5.60938 318.531-4.98438 318.531-4.36979 318.76-3.83854 319.219-3.39062 319.677-2.94271 320.26-2.71875 320.969-2.71875 321.76-2.71875 322.516-2.97917 323.234-3.5 323.766-3.89583 324.115-4.38021 324.281-4.95312 324.396-5.32812 324.453-6.04167 324.453-7.09375ZM331.583-4.73438 335.99-5.40625C336.177-4.55208 336.557-3.90365 337.13-3.46094 337.703-3.01823 338.505-2.79688 339.536-2.79688 340.672-2.79688 341.526-3.00521 342.099-3.42188 342.484-3.71354 342.677-4.10417 342.677-4.59375 342.677-4.92708 342.573-5.20312 342.365-5.42188 342.146-5.63021 341.656-5.82292 340.896-6 337.354-6.78125 335.109-7.49479 334.161-8.14062 332.849-9.03646 332.193-10.2812 332.193-11.875 332.193-13.3125 332.76-14.5208 333.896-15.5 335.031-16.4792 336.792-16.9688 339.177-16.9688 341.448-16.9688 343.135-16.599 344.24-15.8594 345.344-15.1198 346.104-14.026 346.521-12.5781L342.38-11.8125C342.203-12.4583 341.867-12.9531 341.372-13.2969 340.878-13.6406 340.172-13.8125 339.255-13.8125 338.099-13.8125 337.271-13.651 336.771-13.3281 336.438-13.099 336.271-12.8021 336.271-12.4375 336.271-12.125 336.417-11.8594 336.708-11.6406 337.104-11.349 338.471-10.9375 340.81-10.4062 343.148-9.875 344.781-9.22396 345.708-8.45312 346.625-7.67188 347.083-6.58333 347.083-5.1875 347.083-3.66667 346.448-2.35938 345.177-1.26562 343.906-0.171875 342.026 0.375 339.536 0.375 337.276 0.375 335.487-0.0833334 334.169-1 332.852-1.91667 331.99-3.16146 331.583-4.73438ZM375.016 0 370.938 0 370.938-2.4375C370.26-1.48958 369.461-0.783854 368.539-0.320312 367.617 0.143229 366.688 0.375 365.75 0.375 363.844 0.375 362.211-0.393229 360.852-1.92969 359.492-3.46615 358.813-5.60938 358.813-8.35938 358.813-11.1719 359.474-13.3099 360.797-14.7734 362.12-16.237 363.792-16.9688 365.813-16.9688 367.667-16.9688 369.271-16.1979 370.625-14.6562L370.625-22.9062 375.016-22.9062ZM363.297-8.65625C363.297-6.88542 363.542-5.60417 364.031-4.8125 364.74-3.66667 365.729-3.09375 367-3.09375 368.01-3.09375 368.87-3.52344 369.578-4.38281 370.286-5.24219 370.641-6.52604 370.641-8.23438 370.641-10.1406 370.297-11.513 369.609-12.3516 368.922-13.1901 368.042-13.6094 366.969-13.6094 365.927-13.6094 365.055-13.1953 364.352-12.3672 363.648-11.5391 363.297-10.3021 363.297-8.65625ZM388.906-5.28125 393.281-4.54688C392.719-2.94271 391.831-1.72135 390.617-0.882812 389.404-0.0442709 387.885 0.375 386.063 0.375 383.177 0.375 381.042-0.567708 379.656-2.45312 378.562-3.96354 378.016-5.86979 378.016-8.17188 378.016-10.9219 378.734-13.0755 380.172-14.6328 381.609-16.1901 383.427-16.9688 385.625-16.9688 388.094-16.9688 390.042-16.1536 391.469-14.5234 392.896-12.8932 393.578-10.3958 393.516-7.03125L382.516-7.03125C382.547-5.72917 382.901-4.71615 383.578-3.99219 384.255-3.26823 385.099-2.90625 386.109-2.90625 386.797-2.90625 387.375-3.09375 387.844-3.46875 388.312-3.84375 388.667-4.44792 388.906-5.28125ZM389.156-9.71875C389.125-10.9896 388.797-11.9557 388.172-12.6172 387.547-13.2786 386.786-13.6094 385.891-13.6094 384.932-13.6094 384.141-13.2604 383.516-12.5625 382.891-11.8646 382.583-10.9167 382.594-9.71875Z" fill="#FFFFFF" transform="translate(40.1152 61)"/><path d="M1.15625-7.45312 5.65625-7.89062C5.92708-6.38021 6.47656-5.27083 7.30469-4.5625 8.13281-3.85417 9.25-3.5 10.6562-3.5 12.1458-3.5 13.2682-3.8151 14.0234-4.44531 14.7786-5.07552 15.1562-5.8125 15.1562-6.65625 15.1562-7.19792 14.9974-7.65885 14.6797-8.03906 14.362-8.41927 13.8073-8.75 13.0156-9.03125 12.474-9.21875 11.2396-9.55208 9.3125-10.0312 6.83333-10.6458 5.09375-11.401 4.09375-12.2969 2.6875-13.5573 1.98438-15.0938 1.98438-16.9062 1.98438-18.0729 2.3151-19.1641 2.97656-20.1797 3.63802-21.1953 4.59115-21.9688 5.83594-22.5 7.08073-23.0312 8.58333-23.2969 10.3438-23.2969 13.2188-23.2969 15.3828-22.6667 16.8359-21.4062 18.2891-20.1458 19.0521-18.4635 19.125-16.3594L14.5-16.1562C14.3021-17.3333 13.8776-18.1797 13.2266-18.6953 12.5755-19.2109 11.599-19.4688 10.2969-19.4688 8.95312-19.4688 7.90104-19.1927 7.14062-18.6406 6.65104-18.2865 6.40625-17.8125 6.40625-17.2188 6.40625-16.6771 6.63542-16.2135 7.09375-15.8281 7.67708-15.3385 9.09375-14.8281 11.3438-14.2969 13.5937-13.7656 15.2578-13.2161 16.3359-12.6484 17.4141-12.0807 18.2578-11.3047 18.8672-10.3203 19.4766-9.33594 19.7812-8.11979 19.7812-6.67188 19.7812-5.35938 19.4167-4.13021 18.6875-2.98438 17.9583-1.83854 16.9271-0.986979 15.5938-0.429688 14.2604 0.127604 12.599 0.40625 10.6094 0.40625 7.71354 0.40625 5.48958-0.263021 3.9375-1.60156 2.38542-2.9401 1.45833-4.89062 1.15625-7.45312ZM38.724 0 34.3333 0 34.3333-8.46875C34.3333-10.2604 34.2396-11.4193 34.0521-11.9453 33.8646-12.4714 33.5599-12.8802 33.138-13.1719 32.7161-13.4635 32.2083-13.6094 31.6146-13.6094 30.8542-13.6094 30.1719-13.401 29.5677-12.9844 28.9635-12.5677 28.5495-12.0156 28.3255-11.3281 28.1016-10.6406 27.9896-9.36979 27.9896-7.51562L27.9896 0 23.599 0 23.599-16.5938 27.6771-16.5938 27.6771-14.1562C29.125-16.0312 30.9479-16.9688 33.1458-16.9688 34.1146-16.9688 35-16.7943 35.8021-16.4453 36.6042-16.0964 37.2109-15.651 37.6224-15.1094 38.0339-14.5677 38.3203-13.9531 38.4818-13.2656 38.6432-12.5781 38.724-11.5937 38.724-10.3125ZM52.7396-5.28125 57.1146-4.54688C56.5521-2.94271 55.6641-1.72135 54.4505-0.882812 53.237-0.0442709 51.7188 0.375 49.8958 0.375 47.0104 0.375 44.875-0.567708 43.4896-2.45312 42.3958-3.96354 41.849-5.86979 41.849-8.17188 41.849-10.9219 42.5677-13.0755 44.0052-14.6328 45.4427-16.1901 47.2604-16.9688 49.4583-16.9688 51.9271-16.9688 53.875-16.1536 55.3021-14.5234 56.7292-12.8932 57.4115-10.3958 57.349-7.03125L46.349-7.03125C46.3802-5.72917 46.7344-4.71615 47.4115-3.99219 48.0885-3.26823 48.9323-2.90625 49.9427-2.90625 50.6302-2.90625 51.2083-3.09375 51.6771-3.46875 52.1458-3.84375 52.5-4.44792 52.7396-5.28125ZM52.9896-9.71875C52.9583-10.9896 52.6302-11.9557 52.0052-12.6172 51.3802-13.2786 50.6198-13.6094 49.724-13.6094 48.7656-13.6094 47.974-13.2604 47.349-12.5625 46.724-11.8646 46.4167-10.9167 46.4271-9.71875Z" fill="#FFFFFF" transform="translate(443.782 61)"/><path d="M5.57812-11.5312 1.59375-12.25C2.04167-13.8542 2.8125-15.0417 3.90625-15.8125 5-16.5833 6.625-16.9688 8.78125-16.9688 10.7396-16.9688 12.1979-16.737 13.1562-16.2734 14.1146-15.8099 14.7891-15.2214 15.1797-14.5078 15.5703-13.7943 15.7656-12.4844 15.7656-10.5781L15.7188-5.45312C15.7188-3.99479 15.7891-2.91927 15.9297-2.22656 16.0703-1.53385 16.3333-0.791667 16.7188 0L12.375 0C12.2604-0.291667 12.1198-0.723958 11.9531-1.29688 11.8802-1.55729 11.8281-1.72917 11.7969-1.8125 11.0469-1.08333 10.2448-0.536458 9.39062-0.171875 8.53646 0.192708 7.625 0.375 6.65625 0.375 4.94792 0.375 3.60156-0.0885417 2.61719-1.01562 1.63281-1.94271 1.14062-3.11458 1.14062-4.53125 1.14062-5.46875 1.36458-6.30469 1.8125-7.03906 2.26042-7.77344 2.88802-8.33594 3.69531-8.72656 4.5026-9.11719 5.66667-9.45833 7.1875-9.75 9.23958-10.1354 10.6615-10.4948 11.4531-10.8281L11.4531-11.2656C11.4531-12.1094 11.2448-12.7109 10.8281-13.0703 10.4115-13.4297 9.625-13.6094 8.46875-13.6094 7.6875-13.6094 7.07812-13.4557 6.64062-13.1484 6.20312-12.8411 5.84896-12.3021 5.57812-11.5312ZM11.4531-7.96875C10.8906-7.78125 10-7.55729 8.78125-7.29688 7.5625-7.03646 6.76562-6.78125 6.39062-6.53125 5.81771-6.125 5.53125-5.60938 5.53125-4.98438 5.53125-4.36979 5.76042-3.83854 6.21875-3.39062 6.67708-2.94271 7.26042-2.71875 7.96875-2.71875 8.76042-2.71875 9.51562-2.97917 10.2344-3.5 10.7656-3.89583 11.1146-4.38021 11.2812-4.95312 11.3958-5.32812 11.4531-6.04167 11.4531-7.09375Z" fill="#FFFFFF" transform="translate(502.448 61)"/><path d="M16.7656-11.6875 12.4375-10.9062C12.2917-11.7708 11.9609-12.4219 11.4453-12.8594 10.9297-13.2969 10.2604-13.5156 9.4375-13.5156 8.34375-13.5156 7.47135-13.138 6.82031-12.3828 6.16927-11.6276 5.84375-10.3646 5.84375-8.59375 5.84375-6.625 6.17448-5.23438 6.83594-4.42188 7.4974-3.60938 8.38542-3.20312 9.5-3.20312 10.3333-3.20312 11.0156-3.4401 11.5469-3.91406 12.0781-4.38802 12.4531-5.20312 12.6719-6.35938L16.9844-5.625C16.5365-3.64583 15.6771-2.15104 14.4062-1.14062 13.1354-0.130208 11.4323 0.375 9.29688 0.375 6.86979 0.375 4.9349-0.390625 3.49219-1.92188 2.04948-3.45312 1.32812-5.57292 1.32812-8.28125 1.32812-11.0208 2.05208-13.1536 3.5-14.6797 4.94792-16.2057 6.90625-16.9688 9.375-16.9688 11.3958-16.9688 13.0026-16.5339 14.1953-15.6641 15.388-14.7943 16.2448-13.4688 16.7656-11.6875ZM19.974 0 19.974-22.9062 24.3646-22.9062 24.3646-10.75 29.5052-16.5938 34.9115-16.5938 29.2396-10.5312 35.3177 0 30.5833 0 26.4115-7.45312 24.3646-5.3125 24.3646 0ZM47.5729-5.28125 51.9479-4.54688C51.3854-2.94271 50.4974-1.72135 49.2839-0.882812 48.0703-0.0442709 46.5521 0.375 44.7292 0.375 41.8438 0.375 39.7083-0.567708 38.3229-2.45312 37.2292-3.96354 36.6823-5.86979 36.6823-8.17188 36.6823-10.9219 37.401-13.0755 38.8385-14.6328 40.276-16.1901 42.0938-16.9688 44.2917-16.9688 46.7604-16.9688 48.7083-16.1536 50.1354-14.5234 51.5625-12.8932 52.2448-10.3958 52.1823-7.03125L41.1823-7.03125C41.2135-5.72917 41.5677-4.71615 42.2448-3.99219 42.9219-3.26823 43.7656-2.90625 44.776-2.90625 45.4635-2.90625 46.0417-3.09375 46.5104-3.46875 46.9792-3.84375 47.3333-4.44792 47.5729-5.28125ZM47.8229-9.71875C47.7917-10.9896 47.4635-11.9557 46.8385-12.6172 46.2135-13.2786 45.4531-13.6094 44.5573-13.6094 43.599-13.6094 42.8073-13.2604 42.1823-12.5625 41.5573-11.8646 41.25-10.9167 41.2604-9.71875ZM60 0 55.6094 0 55.6094-16.5938 59.6875-16.5938 59.6875-14.2344C60.3854-15.349 61.013-16.0833 61.5703-16.4375 62.1276-16.7917 62.7604-16.9688 63.4688-16.9688 64.4688-16.9688 65.4323-16.6927 66.3594-16.1406L65-12.3125C64.2604-12.7917 63.5729-13.0312 62.9375-13.0312 62.3229-13.0312 61.8021-12.862 61.375-12.5234 60.9479-12.1849 60.612-11.5729 60.3672-10.6875 60.1224-9.80208 60-7.94792 60-5.125ZM66.75-4.73438 71.1562-5.40625C71.3438-4.55208 71.724-3.90365 72.2969-3.46094 72.8698-3.01823 73.6719-2.79688 74.7031-2.79688 75.8385-2.79688 76.6927-3.00521 77.2656-3.42188 77.651-3.71354 77.8438-4.10417 77.8438-4.59375 77.8438-4.92708 77.7396-5.20312 77.5312-5.42188 77.3125-5.63021 76.8229-5.82292 76.0625-6 72.5208-6.78125 70.276-7.49479 69.3281-8.14062 68.0156-9.03646 67.3594-10.2812 67.3594-11.875 67.3594-13.3125 67.9271-14.5208 69.0625-15.5 70.1979-16.4792 71.9583-16.9688 74.3438-16.9688 76.6146-16.9688 78.3021-16.599 79.4062-15.8594 80.5104-15.1198 81.2708-14.026 81.6875-12.5781L77.5469-11.8125C77.3698-12.4583 77.0339-12.9531 76.5391-13.2969 76.0443-13.6406 75.3385-13.8125 74.4219-13.8125 73.2656-13.8125 72.4375-13.651 71.9375-13.3281 71.6042-13.099 71.4375-12.8021 71.4375-12.4375 71.4375-12.125 71.5833-11.8594 71.875-11.6406 72.2708-11.349 73.638-10.9375 75.9766-10.4062 78.3151-9.875 79.9479-9.22396 80.875-8.45312 81.7917-7.67188 82.25-6.58333 82.25-5.1875 82.25-3.66667 81.6146-2.35938 80.3438-1.26562 79.0729-0.171875 77.1927 0.375 74.7031 0.375 72.4427 0.375 70.6536-0.0833334 69.3359-1 68.0182-1.91667 67.1562-3.16146 66.75-4.73438Z" fill="#FFFFFF" transform="translate(520.282 61)"/><path d="M11.9062-5.28125 16.2812-4.54688C15.7188-2.94271 14.8307-1.72135 13.6172-0.882812 12.4036-0.0442709 10.8854 0.375 9.0625 0.375 6.17708 0.375 4.04167-0.567708 2.65625-2.45312 1.5625-3.96354 1.01562-5.86979 1.01562-8.17188 1.01562-10.9219 1.73438-13.0755 3.17188-14.6328 4.60938-16.1901 6.42708-16.9688 8.625-16.9688 11.0937-16.9688 13.0417-16.1536 14.4688-14.5234 15.8958-12.8932 16.5781-10.3958 16.5156-7.03125L5.51562-7.03125C5.54688-5.72917 5.90104-4.71615 6.57812-3.99219 7.25521-3.26823 8.09896-2.90625 9.10938-2.90625 9.79688-2.90625 10.375-3.09375 10.8438-3.46875 11.3125-3.84375 11.6667-4.44792 11.9062-5.28125ZM12.1562-9.71875C12.125-10.9896 11.7969-11.9557 11.1719-12.6172 10.5469-13.2786 9.78646-13.6094 8.89062-13.6094 7.93229-13.6094 7.14062-13.2604 6.51562-12.5625 5.89062-11.8646 5.58333-10.9167 5.59375-9.71875ZM35.224 0 30.8333 0 30.8333-8.46875C30.8333-10.2604 30.7396-11.4193 30.5521-11.9453 30.3646-12.4714 30.0599-12.8802 29.638-13.1719 29.2161-13.4635 28.7083-13.6094 28.1146-13.6094 27.3542-13.6094 26.6719-13.401 26.0677-12.9844 25.4635-12.5677 25.0495-12.0156 24.8255-11.3281 24.6016-10.6406 24.4896-9.36979 24.4896-7.51562L24.4896 0 20.099 0 20.099-16.5938 24.1771-16.5938 24.1771-14.1562C25.625-16.0312 27.4479-16.9688 29.6458-16.9688 30.6146-16.9688 31.5-16.7943 32.3021-16.4453 33.1042-16.0964 33.7109-15.651 34.1224-15.1094 34.5339-14.5677 34.8203-13.9531 34.9818-13.2656 35.1432-12.5781 35.224-11.5937 35.224-10.3125ZM48.4948 0 48.4948-22.9062 65.4792-22.9062 65.4792-19.0312 53.1198-19.0312 53.1198-13.9531 64.6198-13.9531 64.6198-10.0938 53.1198-10.0938 53.1198-3.85938 65.9167-3.85938 65.9167 0ZM68.25-4.73438 72.6563-5.40625C72.8438-4.55208 73.224-3.90365 73.7969-3.46094 74.3698-3.01823 75.1719-2.79688 76.2031-2.79688 77.3385-2.79688 78.1927-3.00521 78.7656-3.42188 79.151-3.71354 79.3438-4.10417 79.3438-4.59375 79.3438-4.92708 79.2396-5.20312 79.0313-5.42188 78.8125-5.63021 78.3229-5.82292 77.5625-6 74.0208-6.78125 71.776-7.49479 70.8281-8.14062 69.5156-9.03646 68.8594-10.2812 68.8594-11.875 68.8594-13.3125 69.4271-14.5208 70.5625-15.5 71.6979-16.4792 73.4583-16.9688 75.8438-16.9688 78.1146-16.9688 79.8021-16.599 80.9063-15.8594 82.0104-15.1198 82.7708-14.026 83.1875-12.5781L79.0469-11.8125C78.8698-12.4583 78.5339-12.9531 78.0391-13.2969 77.5443-13.6406 76.8385-13.8125 75.9219-13.8125 74.7656-13.8125 73.9375-13.651 73.4375-13.3281 73.1042-13.099 72.9375-12.8021 72.9375-12.4375 72.9375-12.125 73.0833-11.8594 73.375-11.6406 73.7708-11.349 75.138-10.9375 77.4766-10.4062 79.8151-9.875 81.4479-9.22396 82.375-8.45312 83.2917-7.67188 83.75-6.58333 83.75-5.1875 83.75-3.66667 83.1146-2.35938 81.8438-1.26562 80.5729-0.171875 78.6927 0.375 76.2031 0.375 73.9427 0.375 72.1536-0.0833334 70.8359-1 69.5182-1.91667 68.6563-3.16146 68.25-4.73438ZM95.2396-16.5938 95.2396-13.0938 92.2396-13.0938 92.2396-6.40625C92.2396-5.05208 92.2682-4.26302 92.3255-4.03906 92.3828-3.8151 92.513-3.63021 92.7162-3.48438 92.9193-3.33854 93.1667-3.26562 93.4583-3.26562 93.8646-3.26562 94.4531-3.40625 95.224-3.6875L95.599-0.28125C94.5781 0.15625 93.4219 0.375 92.1302 0.375 91.3385 0.375 90.625 0.242187 89.9896-0.0234375 89.3542-0.289062 88.888-0.632812 88.5912-1.05469 88.2943-1.47656 88.0885-2.04688 87.974-2.76562 87.8802-3.27604 87.8333-4.30729 87.8333-5.85938L87.8333-13.0938 85.8177-13.0938 85.8177-16.5938 87.8333-16.5938 87.8333-19.8906 92.2396-22.4531 92.2396-16.5938ZM101.578-11.5312 97.5938-12.25C98.0417-13.8542 98.8125-15.0417 99.9063-15.8125 101-16.5833 102.625-16.9688 104.781-16.9688 106.74-16.9688 108.198-16.737 109.156-16.2734 110.115-15.8099 110.789-15.2214 111.18-14.5078 111.57-13.7943 111.766-12.4844 111.766-10.5781L111.719-5.45312C111.719-3.99479 111.789-2.91927 111.93-2.22656 112.07-1.53385 112.333-0.791667 112.719 0L108.375 0C108.26-0.291667 108.12-0.723958 107.953-1.29688 107.88-1.55729 107.828-1.72917 107.797-1.8125 107.047-1.08333 106.245-0.536458 105.391-0.171875 104.536 0.192708 103.625 0.375 102.656 0.375 100.948 0.375 99.6016-0.0885417 98.6172-1.01562 97.6328-1.94271 97.1406-3.11458 97.1406-4.53125 97.1406-5.46875 97.3646-6.30469 97.8125-7.03906 98.2604-7.77344 98.888-8.33594 99.6953-8.72656 100.503-9.11719 101.667-9.45833 103.188-9.75 105.24-10.1354 106.661-10.4948 107.453-10.8281L107.453-11.2656C107.453-12.1094 107.245-12.7109 106.828-13.0703 106.411-13.4297 105.625-13.6094 104.469-13.6094 103.688-13.6094 103.078-13.4557 102.641-13.1484 102.203-12.8411 101.849-12.3021 101.578-11.5312ZM107.453-7.96875C106.891-7.78125 106-7.55729 104.781-7.29688 103.562-7.03646 102.766-6.78125 102.391-6.53125 101.818-6.125 101.531-5.60938 101.531-4.98438 101.531-4.36979 101.76-3.83854 102.219-3.39062 102.677-2.94271 103.26-2.71875 103.969-2.71875 104.76-2.71875 105.516-2.97917 106.234-3.5 106.766-3.89583 107.115-4.38021 107.281-4.95312 107.396-5.32812 107.453-6.04167 107.453-7.09375ZM131.349 0 127.271 0 127.271-2.4375C126.594-1.48958 125.794-0.783854 124.872-0.320312 123.951 0.143229 123.021 0.375 122.083 0.375 120.177 0.375 118.544-0.393229 117.185-1.92969 115.826-3.46615 115.146-5.60938 115.146-8.35938 115.146-11.1719 115.807-13.3099 117.13-14.7734 118.453-16.237 120.125-16.9688 122.146-16.9688 124-16.9688 125.604-16.1979 126.958-14.6562L126.958-22.9062 131.349-22.9062ZM119.63-8.65625C119.63-6.88542 119.875-5.60417 120.365-4.8125 121.073-3.66667 122.063-3.09375 123.333-3.09375 124.344-3.09375 125.203-3.52344 125.911-4.38281 126.62-5.24219 126.974-6.52604 126.974-8.23438 126.974-10.1406 126.63-11.513 125.943-12.3516 125.255-13.1901 124.375-13.6094 123.302-13.6094 122.26-13.6094 121.388-13.1953 120.685-12.3672 119.982-11.5391 119.63-10.3021 119.63-8.65625ZM134.615-8.53125C134.615-9.98958 134.974-11.401 135.693-12.7656 136.411-14.1302 137.43-15.1719 138.747-15.8906 140.065-16.6094 141.536-16.9688 143.161-16.9688 145.672-16.9688 147.729-16.1536 149.333-14.5234 150.938-12.8932 151.74-10.8333 151.74-8.34375 151.74-5.83333 150.93-3.7526 149.31-2.10156 147.69-0.450521 145.651 0.375 143.193 0.375 141.672 0.375 140.221 0.03125 138.841-0.65625 137.461-1.34375 136.411-2.35156 135.693-3.67969 134.974-5.00781 134.615-6.625 134.615-8.53125ZM139.115-8.29688C139.115-6.65104 139.505-5.39062 140.286-4.51562 141.068-3.64062 142.031-3.20312 143.177-3.20312 144.323-3.20312 145.284-3.64062 146.06-4.51562 146.836-5.39062 147.224-6.66146 147.224-8.32812 147.224-9.95312 146.836-11.2031 146.06-12.0781 145.284-12.9531 144.323-13.3906 143.177-13.3906 142.031-13.3906 141.068-12.9531 140.286-12.0781 139.505-11.2031 139.115-9.94271 139.115-8.29688ZM153.583-4.73438 157.99-5.40625C158.177-4.55208 158.557-3.90365 159.13-3.46094 159.703-3.01823 160.505-2.79688 161.536-2.79688 162.672-2.79688 163.526-3.00521 164.099-3.42188 164.484-3.71354 164.677-4.10417 164.677-4.59375 164.677-4.92708 164.573-5.20312 164.365-5.42188 164.146-5.63021 163.656-5.82292 162.896-6 159.354-6.78125 157.109-7.49479 156.161-8.14062 154.849-9.03646 154.193-10.2812 154.193-11.875 154.193-13.3125 154.76-14.5208 155.896-15.5 157.031-16.4792 158.792-16.9688 161.177-16.9688 163.448-16.9688 165.135-16.599 166.24-15.8594 167.344-15.1198 168.104-14.026 168.521-12.5781L164.38-11.8125C164.203-12.4583 163.867-12.9531 163.372-13.2969 162.878-13.6406 162.172-13.8125 161.255-13.8125 160.099-13.8125 159.271-13.651 158.771-13.3281 158.438-13.099 158.271-12.8021 158.271-12.4375 158.271-12.125 158.417-11.8594 158.708-11.6406 159.104-11.349 160.471-10.9375 162.81-10.4062 165.148-9.875 166.781-9.22396 167.708-8.45312 168.625-7.67188 169.083-6.58333 169.083-5.1875 169.083-3.66667 168.448-2.35938 167.177-1.26562 165.906-0.171875 164.026 0.375 161.536 0.375 159.276 0.375 157.487-0.0833334 156.169-1 154.852-1.91667 153.99-3.16146 153.583-4.73438ZM181.797-22.9062 186.422-22.9062 186.422-10.5C186.422-8.53125 186.479-7.25521 186.594-6.67188 186.792-5.73438 187.263-4.98177 188.008-4.41406 188.753-3.84635 189.771-3.5625 191.062-3.5625 192.375-3.5625 193.365-3.83073 194.031-4.36719 194.698-4.90365 195.099-5.5625 195.234-6.34375 195.37-7.125 195.438-8.42188 195.438-10.2344L195.438-22.9062 200.062-22.9062 200.062-10.875C200.062-8.125 199.937-6.18229 199.688-5.04688 199.437-3.91146 198.977-2.95312 198.305-2.17188 197.633-1.39062 196.734-0.768229 195.609-0.304688 194.484 0.158854 193.016 0.390625 191.203 0.390625 189.016 0.390625 187.357 0.138021 186.227-0.367188 185.096-0.872396 184.203-1.52865 183.547-2.33594 182.891-3.14323 182.458-3.98958 182.25-4.875 181.948-6.1875 181.797-8.125 181.797-10.6875ZM220.057 0 215.667 0 215.667-8.46875C215.667-10.2604 215.573-11.4193 215.385-11.9453 215.198-12.4714 214.893-12.8802 214.471-13.1719 214.049-13.4635 213.542-13.6094 212.948-13.6094 212.188-13.6094 211.505-13.401 210.901-12.9844 210.297-12.5677 209.883-12.0156 209.659-11.3281 209.435-10.6406 209.323-9.36979 209.323-7.51562L209.323 0 204.932 0 204.932-16.5938 209.01-16.5938 209.01-14.1562C210.458-16.0312 212.281-16.9688 214.479-16.9688 215.448-16.9688 216.333-16.7943 217.135-16.4453 217.938-16.0964 218.544-15.651 218.956-15.1094 219.367-14.5677 219.654-13.9531 219.815-13.2656 219.977-12.5781 220.057-11.5937 220.057-10.3125ZM224.464-18.8438 224.464-22.9062 228.854-22.9062 228.854-18.8438ZM224.464 0 224.464-16.5938 228.854-16.5938 228.854 0ZM248.516 0 244.438 0 244.438-2.4375C243.76-1.48958 242.961-0.783854 242.039-0.320312 241.117 0.143229 240.187 0.375 239.25 0.375 237.344 0.375 235.711-0.393229 234.352-1.92969 232.992-3.46615 232.312-5.60938 232.312-8.35938 232.312-11.1719 232.974-13.3099 234.297-14.7734 235.62-16.237 237.292-16.9688 239.312-16.9688 241.167-16.9688 242.771-16.1979 244.125-14.6562L244.125-22.9062 248.516-22.9062ZM236.797-8.65625C236.797-6.88542 237.042-5.60417 237.531-4.8125 238.24-3.66667 239.229-3.09375 240.5-3.09375 241.51-3.09375 242.37-3.52344 243.078-4.38281 243.786-5.24219 244.141-6.52604 244.141-8.23438 244.141-10.1406 243.797-11.513 243.109-12.3516 242.422-13.1901 241.542-13.6094 240.469-13.6094 239.427-13.6094 238.555-13.1953 237.852-12.3672 237.148-11.5391 236.797-10.3021 236.797-8.65625ZM251.781-8.53125C251.781-9.98958 252.141-11.401 252.859-12.7656 253.578-14.1302 254.596-15.1719 255.914-15.8906 257.232-16.6094 258.703-16.9688 260.328-16.9688 262.839-16.9688 264.896-16.1536 266.5-14.5234 268.104-12.8932 268.906-10.8333 268.906-8.34375 268.906-5.83333 268.096-3.7526 266.477-2.10156 264.857-0.450521 262.818 0.375 260.359 0.375 258.839 0.375 257.388 0.03125 256.008-0.65625 254.628-1.34375 253.578-2.35156 252.859-3.67969 252.141-5.00781 251.781-6.625 251.781-8.53125ZM256.281-8.29688C256.281-6.65104 256.672-5.39062 257.453-4.51562 258.234-3.64062 259.198-3.20312 260.344-3.20312 261.49-3.20312 262.451-3.64062 263.227-4.51562 264.003-5.39062 264.391-6.66146 264.391-8.32812 264.391-9.95312 264.003-11.2031 263.227-12.0781 262.451-12.9531 261.49-13.3906 260.344-13.3906 259.198-13.3906 258.234-12.9531 257.453-12.0781 256.672-11.2031 256.281-9.94271 256.281-8.29688ZM270.75-4.73438 275.156-5.40625C275.344-4.55208 275.724-3.90365 276.297-3.46094 276.87-3.01823 277.672-2.79688 278.703-2.79688 279.839-2.79688 280.693-3.00521 281.266-3.42188 281.651-3.71354 281.844-4.10417 281.844-4.59375 281.844-4.92708 281.74-5.20312 281.531-5.42188 281.312-5.63021 280.823-5.82292 280.062-6 276.521-6.78125 274.276-7.49479 273.328-8.14062 272.016-9.03646 271.359-10.2812 271.359-11.875 271.359-13.3125 271.927-14.5208 273.062-15.5 274.198-16.4792 275.958-16.9688 278.344-16.9688 280.615-16.9688 282.302-16.599 283.406-15.8594 284.51-15.1198 285.271-14.026 285.688-12.5781L281.547-11.8125C281.37-12.4583 281.034-12.9531 280.539-13.2969 280.044-13.6406 279.339-13.8125 278.422-13.8125 277.266-13.8125 276.438-13.651 275.938-13.3281 275.604-13.099 275.438-12.8021 275.438-12.4375 275.438-12.125 275.583-11.8594 275.875-11.6406 276.271-11.349 277.638-10.9375 279.977-10.4062 282.315-9.875 283.948-9.22396 284.875-8.45312 285.792-7.67188 286.25-6.58333 286.25-5.1875 286.25-3.66667 285.615-2.35938 284.344-1.26562 283.073-0.171875 281.193 0.375 278.703 0.375 276.443 0.375 274.654-0.0833334 273.336-1 272.018-1.91667 271.156-3.16146 270.75-4.73438ZM308.573-5.28125 312.948-4.54688C312.385-2.94271 311.497-1.72135 310.284-0.882812 309.07-0.0442709 307.552 0.375 305.729 0.375 302.844 0.375 300.708-0.567708 299.323-2.45312 298.229-3.96354 297.682-5.86979 297.682-8.17188 297.682-10.9219 298.401-13.0755 299.839-14.6328 301.276-16.1901 303.094-16.9688 305.292-16.9688 307.76-16.9688 309.708-16.1536 311.135-14.5234 312.562-12.8932 313.245-10.3958 313.182-7.03125L302.182-7.03125C302.214-5.72917 302.568-4.71615 303.245-3.99219 303.922-3.26823 304.766-2.90625 305.776-2.90625 306.464-2.90625 307.042-3.09375 307.51-3.46875 307.979-3.84375 308.333-4.44792 308.573-5.28125ZM308.823-9.71875C308.792-10.9896 308.464-11.9557 307.839-12.6172 307.214-13.2786 306.453-13.6094 305.557-13.6094 304.599-13.6094 303.807-13.2604 303.182-12.5625 302.557-11.8646 302.25-10.9167 302.26-9.71875ZM331.891 0 327.5 0 327.5-8.46875C327.5-10.2604 327.406-11.4193 327.219-11.9453 327.031-12.4714 326.727-12.8802 326.305-13.1719 325.883-13.4635 325.375-13.6094 324.781-13.6094 324.021-13.6094 323.339-13.401 322.734-12.9844 322.13-12.5677 321.716-12.0156 321.492-11.3281 321.268-10.6406 321.156-9.36979 321.156-7.51562L321.156 0 316.766 0 316.766-16.5938 320.844-16.5938 320.844-14.1562C322.292-16.0312 324.115-16.9688 326.313-16.9688 327.281-16.9688 328.167-16.7943 328.969-16.4453 329.771-16.0964 330.378-15.651 330.789-15.1094 331.201-14.5677 331.487-13.9531 331.648-13.2656 331.81-12.5781 331.891-11.5937 331.891-10.3125ZM343.906-16.5938 343.906-13.0938 340.906-13.0938 340.906-6.40625C340.906-5.05208 340.935-4.26302 340.992-4.03906 341.049-3.8151 341.18-3.63021 341.383-3.48438 341.586-3.33854 341.833-3.26562 342.125-3.26562 342.531-3.26562 343.12-3.40625 343.891-3.6875L344.266-0.28125C343.245 0.15625 342.089 0.375 340.797 0.375 340.005 0.375 339.292 0.242187 338.656-0.0234375 338.021-0.289062 337.555-0.632812 337.258-1.05469 336.961-1.47656 336.755-2.04688 336.641-2.76562 336.547-3.27604 336.5-4.30729 336.5-5.85938L336.5-13.0938 334.484-13.0938 334.484-16.5938 336.5-16.5938 336.5-19.8906 340.906-22.4531 340.906-16.5938ZM351.167 0 346.776 0 346.776-16.5938 350.854-16.5938 350.854-14.2344C351.552-15.349 352.18-16.0833 352.737-16.4375 353.294-16.7917 353.927-16.9688 354.635-16.9688 355.635-16.9688 356.599-16.6927 357.526-16.1406L356.167-12.3125C355.427-12.7917 354.74-13.0312 354.104-13.0312 353.49-13.0312 352.969-12.862 352.542-12.5234 352.115-12.1849 351.779-11.5729 351.534-10.6875 351.289-9.80208 351.167-7.94792 351.167-5.125ZM369.073-5.28125 373.448-4.54688C372.885-2.94271 371.997-1.72135 370.784-0.882812 369.57-0.0442709 368.052 0.375 366.229 0.375 363.344 0.375 361.208-0.567708 359.823-2.45312 358.729-3.96354 358.182-5.86979 358.182-8.17188 358.182-10.9219 358.901-13.0755 360.339-14.6328 361.776-16.1901 363.594-16.9688 365.792-16.9688 368.26-16.9688 370.208-16.1536 371.635-14.5234 373.062-12.8932 373.745-10.3958 373.682-7.03125L362.682-7.03125C362.714-5.72917 363.068-4.71615 363.745-3.99219 364.422-3.26823 365.266-2.90625 366.276-2.90625 366.964-2.90625 367.542-3.09375 368.01-3.46875 368.479-3.84375 368.833-4.44792 369.073-5.28125ZM369.323-9.71875C369.292-10.9896 368.964-11.9557 368.339-12.6172 367.714-13.2786 366.953-13.6094 366.057-13.6094 365.099-13.6094 364.307-13.2604 363.682-12.5625 363.057-11.8646 362.75-10.9167 362.76-9.71875Z" fill="#FFFFFF" transform="translate(612.948 61)"/><path d="M16.1875-4.07812 16.1875 0 0.796875 0C0.963542-1.54167 1.46354-3.0026 2.29688-4.38281 3.13021-5.76302 4.77604-7.59375 7.23438-9.875 9.21354-11.7188 10.4271-12.9688 10.875-13.625 11.4792-14.5312 11.7812-15.4271 11.7812-16.3125 11.7812-17.2917 11.5182-18.0443 10.9922-18.5703 10.4661-19.0964 9.73958-19.3594 8.8125-19.3594 7.89583-19.3594 7.16667-19.0833 6.625-18.5312 6.08333-17.9792 5.77083-17.0625 5.6875-15.7812L1.3125-16.2188C1.57292-18.6354 2.39062-20.3698 3.76562-21.4219 5.14062-22.474 6.85938-23 8.92188-23 11.1823-23 12.9583-22.3906 14.25-21.1719 15.5417-19.9531 16.1875-18.4375 16.1875-16.625 16.1875-15.5938 16.0026-14.612 15.6328-13.6797 15.263-12.7474 14.6771-11.7708 13.875-10.75 13.3437-10.0729 12.3854-9.09896 11-7.82812 9.61458-6.55729 8.73698-5.71354 8.36719-5.29688 7.9974-4.88021 7.69792-4.47396 7.46875-4.07812ZM26.6146-23C28.8333-23 30.5677-22.2083 31.8177-20.625 33.3073-18.75 34.0521-15.6406 34.0521-11.2969 34.0521-6.96354 33.3021-3.84896 31.8021-1.95312 30.5625-0.390625 28.8333 0.390625 26.6146 0.390625 24.3854 0.390625 22.5885-0.466146 21.224-2.17969 19.8594-3.89323 19.1771-6.94792 19.1771-11.3438 19.1771-15.6562 19.9271-18.7604 21.4271-20.6562 22.6667-22.2188 24.3958-23 26.6146-23ZM26.6146-19.3594C26.0833-19.3594 25.6094-19.1901 25.1927-18.8516 24.776-18.513 24.4531-17.9062 24.224-17.0312 23.9219-15.8958 23.7708-13.9844 23.7708-11.2969 23.7708-8.60938 23.9062-6.76302 24.1771-5.75781 24.4479-4.7526 24.7891-4.08333 25.2005-3.75 25.612-3.41667 26.0833-3.25 26.6146-3.25 27.1458-3.25 27.6198-3.41927 28.0365-3.75781 28.4531-4.09635 28.776-4.70312 29.0052-5.57812 29.3073-6.70312 29.4583-8.60938 29.4583-11.2969 29.4583-13.9844 29.3229-15.8307 29.0521-16.8359 28.7812-17.8411 28.4401-18.513 28.0286-18.8516 27.6172-19.1901 27.1458-19.3594 26.6146-19.3594ZM48.2604 0 43.8698 0 43.8698-16.5469C42.2656-15.0469 40.375-13.9375 38.1979-13.2188L38.1979-17.2031C39.3438-17.5781 40.5885-18.2891 41.9323-19.3359 43.276-20.3828 44.1979-21.6042 44.6979-23L48.2604-23ZM54.8594-18.5156 54.8594-22.5938 69.875-22.5938 69.875-19.4062C68.6354-18.1875 67.375-16.4375 66.0938-14.1562 64.8125-11.875 63.8359-9.45052 63.1641-6.88281 62.4922-4.3151 62.1615-2.02083 62.1719 0L57.9375 0C58.0104-3.16667 58.6641-6.39583 59.8984-9.6875 61.1328-12.9792 62.7812-15.9219 64.8438-18.5156ZM80.3854-16.5938 85.0573-16.5938 89.026-4.8125 92.901-16.5938 97.4479-16.5938 91.5885-0.625 90.5417 2.26562C90.1562 3.23438 89.7891 3.97396 89.4401 4.48438 89.0911 4.99479 88.6901 5.40885 88.237 5.72656 87.7839 6.04427 87.2266 6.29167 86.5651 6.46875 85.9036 6.64583 85.1562 6.73438 84.3229 6.73438 83.4792 6.73438 82.651 6.64583 81.8385 6.46875L81.4479 3.03125C82.1354 3.16667 82.7552 3.23437 83.3073 3.23438 84.3281 3.23437 85.0833 2.9349 85.5729 2.33594 86.0625 1.73698 86.4375 0.973958 86.6979 0.046875ZM123.021-4.07812 123.021 0 107.63 0C107.797-1.54167 108.297-3.0026 109.13-4.38281 109.964-5.76302 111.609-7.59375 114.068-9.875 116.047-11.7188 117.26-12.9688 117.708-13.625 118.313-14.5312 118.615-15.4271 118.615-16.3125 118.615-17.2917 118.352-18.0443 117.826-18.5703 117.299-19.0964 116.573-19.3594 115.646-19.3594 114.729-19.3594 114-19.0833 113.458-18.5312 112.917-17.9792 112.604-17.0625 112.521-15.7812L108.146-16.2188C108.406-18.6354 109.224-20.3698 110.599-21.4219 111.974-22.474 113.693-23 115.755-23 118.016-23 119.792-22.3906 121.083-21.1719 122.375-19.9531 123.021-18.4375 123.021-16.625 123.021-15.5938 122.836-14.612 122.466-13.6797 122.096-12.7474 121.51-11.7708 120.708-10.75 120.177-10.0729 119.219-9.09896 117.833-7.82812 116.448-6.55729 115.57-5.71354 115.201-5.29688 114.831-4.88021 114.531-4.47396 114.302-4.07812ZM133.448-23C135.667-23 137.401-22.2083 138.651-20.625 140.141-18.75 140.885-15.6406 140.885-11.2969 140.885-6.96354 140.135-3.84896 138.635-1.95312 137.396-0.390625 135.667 0.390625 133.448 0.390625 131.219 0.390625 129.422-0.466146 128.057-2.17969 126.693-3.89323 126.01-6.94792 126.01-11.3438 126.01-15.6562 126.76-18.7604 128.26-20.6562 129.5-22.2188 131.229-23 133.448-23ZM133.448-19.3594C132.917-19.3594 132.443-19.1901 132.026-18.8516 131.609-18.513 131.286-17.9062 131.057-17.0312 130.755-15.8958 130.604-13.9844 130.604-11.2969 130.604-8.60938 130.74-6.76302 131.01-5.75781 131.281-4.7526 131.622-4.08333 132.034-3.75 132.445-3.41667 132.917-3.25 133.448-3.25 133.979-3.25 134.453-3.41927 134.87-3.75781 135.286-4.09635 135.609-4.70312 135.839-5.57812 136.141-6.70312 136.292-8.60938 136.292-11.2969 136.292-13.9844 136.156-15.8307 135.885-16.8359 135.615-17.8411 135.273-18.513 134.862-18.8516 134.451-19.1901 133.979-19.3594 133.448-19.3594ZM155.094 0 150.703 0 150.703-16.5469C149.099-15.0469 147.208-13.9375 145.031-13.2188L145.031-17.2031C146.177-17.5781 147.422-18.2891 148.766-19.3359 150.109-20.3828 151.031-21.6042 151.531-23L155.094-23ZM161.786-5.29688 166.036-5.76562C166.141-4.90104 166.411-4.26042 166.849-3.84375 167.286-3.42708 167.865-3.21875 168.583-3.21875 169.49-3.21875 170.26-3.63542 170.896-4.46875 171.531-5.30208 171.938-7.03125 172.115-9.65625 171.01-8.375 169.63-7.73437 167.974-7.73438 166.172-7.73437 164.617-8.42969 163.31-9.82031 162.003-11.2109 161.349-13.0208 161.349-15.25 161.349-17.5729 162.039-19.4453 163.419-20.8672 164.799-22.2891 166.557-23 168.693-23 171.016-23 172.922-22.1016 174.411-20.3047 175.901-18.5078 176.646-15.5521 176.646-11.4375 176.646-7.25 175.87-4.22917 174.318-2.375 172.766-0.520833 170.745 0.40625 168.255 0.40625 166.464 0.40625 165.016-0.0703125 163.911-1.02344 162.807-1.97656 162.099-3.40104 161.786-5.29688ZM171.724-14.8906C171.724-16.3073 171.398-17.4062 170.747-18.1875 170.096-18.9688 169.344-19.3594 168.49-19.3594 167.677-19.3594 167.003-19.0391 166.466-18.3984 165.93-17.7578 165.661-16.7083 165.661-15.25 165.661-13.7708 165.953-12.6849 166.536-11.9922 167.12-11.2995 167.849-10.9531 168.724-10.9531 169.568-10.9531 170.279-11.2865 170.857-11.9531 171.435-12.6198 171.724-13.599 171.724-14.8906Z" fill="#FFFFFF" transform="translate(424.948 100)"/></g></g><path d="M29 20.667C29 17.5372 31.5372 15 34.6669 15L1002.33 15C1005.46 15 1008 17.5372 1008 20.667L1008 94.333C1008 97.4628 1005.46 100 1002.33 100L34.6669 100C31.5372 100 29 97.4628 29 94.333Z" fill="url(#fill13)" fill-rule="evenodd"/><text fill="#FFFFFF" font-family="Arial,Arial_MSFontService,sans-serif" font-weight="700" font-size="32" transform="translate(44.973 50)">Datos sobre las ventas de</text><text fill="#FFFFFF" font-family="Arial,Arial_MSFontService,sans-serif" font-weight="700" font-size="32" transform="translate(448.64 50)">Sne</text><text fill="#FFFFFF" font-family="Arial,Arial_MSFontService,sans-serif" font-weight="700" font-size="32" transform="translate(507.306 50)">a</text><text fill="#FFFFFF" font-family="Arial,Arial_MSFontService,sans-serif" font-weight="700" font-size="32" transform="translate(525.14 50)">ckers</text><text fill="#FFFFFF" font-family="Arial,Arial_MSFontService,sans-serif" font-weight="700" font-size="32" transform="translate(617.806 50)">en Estados Unidos entre</text><text fill="#FFFFFF" font-family="Arial,Arial_MSFontService,sans-serif" font-weight="700" font-size="32" transform="translate(429.806 89)">2017 y 2019</text><g filter="url(#fx3)" transform="translate(816 90)"><g><path d="M21.0153 26.9929C21.0153 23.9127 23.5123 21.4156 26.5925 21.4156L458.438 21.4156C461.518 21.4156 464.015 23.9127 464.015 26.9929L464.015 315.838C464.015 318.919 461.518 321.416 458.438 321.416L26.5925 321.416C23.5123 321.416 21.0153 318.919 21.0153 315.838Z" fill="#FFFFFF" fill-rule="evenodd"/></g></g><path d="M828 114.577C828 111.497 830.497 109 833.577 109L1265.42 109C1268.5 109 1271 111.497 1271 114.577L1271 403.423C1271 406.503 1268.5 409 1265.42 409L833.577 409C830.497 409 828 406.503 828 403.423Z" fill="#FFFFFF" fill-rule="evenodd"/><g filter="url(#fx4)" transform="translate(183 400)"><g><path d="M21.0153 26.2675C21.0153 23.5879 23.1876 21.4156 25.8672 21.4156L405.163 21.4156C407.843 21.4156 410.015 23.5879 410.015 26.2675L410.015 277.564C410.015 280.243 407.843 282.416 405.163 282.416L25.8672 282.416C23.1876 282.416 21.0153 280.243 21.0153 277.564Z" fill="#FFFFFF" fill-rule="evenodd"/></g></g><path d="M195 423.852C195 421.172 197.172 419 199.852 419L579.148 419C581.828 419 584 421.172 584 423.852L584 675.148C584 677.828 581.828 680 579.148 680L199.852 680C197.172 680 195 677.828 195 675.148Z" fill="#FFFFFF" fill-rule="evenodd"/><g filter="url(#fx5)" transform="translate(582 400)"><g><path d="M21.0153 26.2675C21.0153 23.5879 23.1876 21.4156 25.8672 21.4156L350.163 21.4156C352.843 21.4156 355.015 23.5879 355.015 26.2675L355.015 277.564C355.015 280.243 352.843 282.416 350.163 282.416L25.8672 282.416C23.1876 282.416 21.0153 280.243 21.0153 277.564Z" fill="#FFFFFF" fill-rule="evenodd"/></g></g><path d="M594 423.852C594 421.172 596.172 419 598.852 419L923.148 419C925.828 419 928 421.172 928 423.852L928 675.148C928 677.828 925.828 680 923.148 680L598.852 680C596.172 680 594 677.828 594 675.148Z" fill="#FFFFFF" fill-rule="evenodd"/><g filter="url(#fx6)" transform="translate(925 400)"><g><path d="M21.0153 26.2675C21.0153 23.5879 23.1876 21.4156 25.8672 21.4156L350.163 21.4156C352.843 21.4156 355.015 23.5879 355.015 26.2675L355.015 277.564C355.015 280.243 352.843 282.416 350.163 282.416L25.8672 282.416C23.1876 282.416 21.0153 280.243 21.0153 277.564Z" fill="#FFFFFF" fill-rule="evenodd"/></g></g><path d="M937 423.852C937 421.172 939.172 419 941.852 419L1266.15 419C1268.83 419 1271 421.172 1271 423.852L1271 675.148C1271 677.828 1268.83 680 1266.15 680L941.852 680C939.172 680 937 677.828 937 675.148Z" fill="#FFFFFF" fill-rule="evenodd"/><g filter="url(#fx7)" transform="translate(22 342)"><g><path d="M21.1421 29.1426C21.1421 24.7241 24.724 21.1422 29.1425 21.1422L149.142 21.1422C153.56 21.1422 157.142 24.7241 157.142 29.1426L157.142 133.142C157.142 137.56 153.56 141.142 149.142 141.142L29.1425 141.142C24.724 141.142 21.1421 137.56 21.1421 133.142Z" fill="#FF0000" fill-rule="evenodd"/></g></g><path d="M29 357C29 352.582 32.5819 349 37.0004 349L157 349C161.418 349 165 352.582 165 357L165 461C165 465.418 161.418 469 157 469L37.0004 469C32.5819 469 29 465.418 29 461Z" fill="url(#fill14)" fill-rule="evenodd"/><g filter="url(#fx8)" transform="translate(22 481)"><g><path d="M21.1421 29.1426C21.1421 24.7241 24.724 21.1422 29.1425 21.1422L149.142 21.1422C153.56 21.1422 157.142 24.7241 157.142 29.1426L157.142 133.142C157.142 137.56 153.56 141.142 149.142 141.142L29.1425 141.142C24.724 141.142 21.1421 137.56 21.1421 133.142Z" fill="#FF0000" fill-rule="evenodd"/></g></g><path d="M29 496C29 491.582 32.5819 488 37.0004 488L157 488C161.418 488 165 491.582 165 496L165 600C165 604.418 161.418 608 157 608L37.0004 608C32.5819 608 29 604.418 29 600Z" fill="url(#fill15)" fill-rule="evenodd"/><g filter="url(#fx9)" transform="translate(185 90)"><g><path d="M21.0153 27.0112C21.0153 23.9209 23.5205 21.4156 26.6109 21.4156L637.42 21.4156C640.51 21.4156 643.015 23.9209 643.015 27.0112L643.015 316.82C643.015 319.91 640.51 322.416 637.42 322.416L26.6109 322.416C23.5205 322.416 21.0153 319.91 21.0153 316.82Z" fill="#FFFFFF" fill-rule="evenodd"/></g></g><path d="M197 114.596C197 111.505 199.505 109 202.596 109L813.404 109C816.495 109 819 111.505 819 114.596L819 404.404C819 407.495 816.495 410 813.404 410L202.596 410C199.505 410 197 407.495 197 404.404Z" fill="#FFFFFF" fill-rule="evenodd"/></g></svg>